<svg xmlns="http://www.w3.org/2000/svg" width="264" height="181" viewBox="0 0 264 181"><g transform="translate(-904 -17)"><rect width="264" height="181" rx="20" transform="translate(904 17)" fill="none"/><g transform="translate(51.648 -14.463)"><path d="M138.664,139H.167V73.239H0V61.319l.167-.382v8.82l6.854-16.01h5.785l6.623,15.425V53.747h6.355l5.1,11.053,4.684-11.053h6.483V70.04H38.052l-.011-12.759L32.391,70.04H28.972L23.31,57.269V70.04H15.392l-1.5-3.635H5.786L4.274,70.04H.167v3.2H6.654l1.5-3.619h3.357l1.5,3.619H26.1V70.472l1.168,2.779h6.8l1.169-2.819v2.807H67.77L67.753,67.3h.63c.442.017.569.054.569.786v5.155H85.78V71.856a13.209,13.209,0,0,0,6.244,1.383H99.1l1.514-3.619h3.358l1.481,3.619H119.1V69.8l2.067,3.437H132.1V50.517H121.28V53.2l-1.515-2.684h-11.1V53.2l-1.39-2.684h-15a13.418,13.418,0,0,0-6.5,1.327V50.517H75.433v1.327a6.3,6.3,0,0,0-4.4-1.327h-37.8l-2.536,5.868-2.607-5.868H16.18V53.2l-1.31-2.684H4.717L.167,60.937V0h138.5V87.02a4.8,4.8,0,0,1,.821,3.05,5.274,5.274,0,0,1-.822,3.056V139ZM51.461,97.75h0l3.123,3.533,12.695.013V95.948h1.249c.191,0,.364,0,.529,0a12.424,12.424,0,0,0,4.894-.805v6.137H84.424V95.36h.5c.639,0,.709.022.709.669v5.254h31.81a8.967,8.967,0,0,0,5.3-1.456v1.456h10.089a13.466,13.466,0,0,0,5.713-1.048V96c-.934,1.365-2.762,2.086-5.285,2.086h-7.522V94.592h7.491a2.183,2.183,0,0,0,1.577-.405,1.437,1.437,0,0,0,.46-1.062,1.342,1.342,0,0,0-.477-1.077,1.957,1.957,0,0,0-1.37-.364l-.721-.021c-3.515-.094-7.5-.2-7.5-5.021,0-2.346,1.468-4.853,5.586-4.853h7.755V78.547h-7.2a8.172,8.172,0,0,0-4.875,1.331V78.547h-10.66c-1.507,0-3.629.349-4.65,1.331V78.547H92.118v1.331c-1.792-1.294-4.9-1.331-5.25-1.331H74.311v1.331c-1.137-1.1-3.611-1.331-5.487-1.331H54.77l-3.214,3.481-3.013-3.481H27.551v22.737h20.6L51.46,97.75Zm79.99-12.492a2.69,2.69,0,0,0-1.576.294,1.26,1.26,0,0,0-.571,1.172,1.232,1.232,0,0,0,.852,1.213,4.437,4.437,0,0,0,1.5.184l2.108.056c2.23.056,3.594.461,4.421,1.312a1.772,1.772,0,0,1,.3.329l.058.074V85.258ZM9.823,56.517h0L7.174,63.009H12.49L9.823,56.517Zm71.4,41.569H77.309v-16.3H86.3c2.153,0,3.469.119,4.687.768a3.839,3.839,0,0,1,2,3.619,4.683,4.683,0,0,1-1,2.99,4.414,4.414,0,0,1-1.763,1.346,4.217,4.217,0,0,1,1.906,1.365,4.748,4.748,0,0,1,.644,2.978v3.228H88.872v-2.04c0-.073,0-.15,0-.228v-.07c.009-.983.019-2.206-.632-2.89-.592-.605-1.5-.724-2.859-.724H81.221v5.952Zm0-12.925V88.82h4.73a3.77,3.77,0,0,0,1.924-.334,1.768,1.768,0,0,0,.806-1.566,1.554,1.554,0,0,0-.806-1.464,3.774,3.774,0,0,0-1.858-.294ZM46.493,98.085H31.069v-16.3H46.731l4.792,5.342,4.952-5.342H68.918a8.339,8.339,0,0,1,4.44.991,4.763,4.763,0,0,1,2.123,4.375,4.848,4.848,0,0,1-2.115,4.43A8.7,8.7,0,0,1,68.7,92.619H63.841v5.464H56.27l-4.794-5.4-4.983,5.4ZM59.961,83.537h0l-5.979,6.427L59.961,96.6V83.537ZM34.949,91.447v3.242h9.574l4.449-4.781-4.262-4.749h-9.76v2.963H43.5v3.325ZM63.841,85.16v4.15h5.031c1.542,0,2.426-.785,2.426-2.154,0-1.649-1.294-2-2.38-2Zm54.219,12.924h-7.583V94.592h7.553a2.253,2.253,0,0,0,1.591-.405,1.452,1.452,0,0,0,.457-1.062,1.4,1.4,0,0,0-.473-1.077,2.038,2.038,0,0,0-1.387-.364c-.236-.008-.476-.014-.719-.021-3.508-.094-7.484-.2-7.484-5.021,0-2.346,1.462-4.853,5.567-4.853h7.808v3.469h-7.143a2.639,2.639,0,0,0-1.561.294,1.364,1.364,0,0,0,.268,2.385,4.442,4.442,0,0,0,1.516.187l2.1.055c2.235.055,3.606.459,4.445,1.31a4.545,4.545,0,0,1,1.164,3.453C124.177,96.355,122.119,98.084,118.061,98.084Zm-9.917,0h-13v-16.3h13v3.369H99.024v2.963h8.9v3.325h-8.9v3.242l9.119.016v3.378Zm7.584-28.044H107.8L106.283,66.4H98.192L96.721,70.04H92.166c-1.166,0-4.051-.176-5.646-1.8-1.44-1.455-2.082-3.374-2.082-6.219,0-2.893.648-4.857,2.1-6.371,1.24-1.279,3.174-1.9,5.914-1.9h3.77v3.491h-3.69a3.723,3.723,0,0,0-3,.965,5.4,5.4,0,0,0-1.121,3.69,5.639,5.639,0,0,0,1.073,3.826,3.8,3.8,0,0,0,2.713.842h1.75L99.437,53.75h5.834l6.593,15.409V53.75h5.929l6.843,11.345V53.75h3.991V70.039h-5.521l-7.38-12.228V70.04ZM102.259,56.517h0L99.58,63.009h5.374l-2.695-6.492ZM64.55,70.041H60.656V53.747h8.955c1.97,0,3.461.056,4.717.78a3.828,3.828,0,0,1,1.968,3.61A4.715,4.715,0,0,1,75.3,61.13a4.369,4.369,0,0,1-1.75,1.349,4.509,4.509,0,0,1,1.927,1.373,4.685,4.685,0,0,1,.644,2.988v3.2H72.2l-.014-2.055c0-.1,0-.2,0-.306a4.3,4.3,0,0,0-.617-2.867c-.577-.583-1.478-.7-2.839-.7H64.55V70.04Zm0-12.9V60.76h4.729a3.553,3.553,0,0,0,1.928-.337,1.672,1.672,0,0,0,.8-1.548,1.5,1.5,0,0,0-.817-1.441,4,4,0,0,0-1.846-.294Zm17.979,12.9H78.557V53.747h3.971V70.039Zm-24.572,0H44.947V53.747h13.01v3.394H48.843v2.935h8.894v3.34H48.843v3.253h9.114v3.37Z" transform="translate(914.609 51.964)" stroke="rgba(0,0,0,0)" stroke-miterlimit="10" stroke-width="1"/></g></g></svg>