<svg width="264" height="181" viewBox="0 0 264 181" fill="none" xmlns="http://www.w3.org/2000/svg">
<g clip-path="url(#clip0_105_59)">
<mask id="mask0_105_59" style="mask-type:luminance" maskUnits="userSpaceOnUse" x="59" y="18" width="145" height="145">
<path d="M204 18H59V163H204V18Z" fill="white"/>
</mask>
<g mask="url(#mask0_105_59)">
<path fill-rule="evenodd" clip-rule="evenodd" d="M203.934 42.4528C203.87 28.9716 192.923 18.0615 179.429 18.0615C176.076 18.0615 172.79 18.6985 169.972 19.9549L80.6769 57.8751C67.9509 63.2576 59 75.8687 59 90.5321V138.494C59 152.026 69.9705 163 83.5079 163C86.941 163 90.2063 162.289 93.1751 161.014L182.091 123.262C194.905 117.915 203.936 105.262 203.936 90.5321L203.934 42.4528Z" fill="black"/>
<path fill-rule="evenodd" clip-rule="evenodd" d="M121.784 109.785C120.744 109.785 119.899 108.85 119.899 107.697V63.5898C119.899 62.4362 120.744 61.5 121.784 61.5C122.825 61.5 123.669 62.4362 123.669 63.5898V107.697C123.669 108.85 122.825 109.785 121.784 109.785Z" fill="white"/>
<path fill-rule="evenodd" clip-rule="evenodd" d="M138.169 107.816V73.3292C138.169 72.1617 137.324 71.2153 136.28 71.2153C135.241 71.2153 134.399 72.1617 134.399 73.3292V107.816C134.399 108.983 135.241 109.93 136.28 109.93C137.324 109.93 138.169 108.983 138.169 107.816Z" fill="white"/>
<path fill-rule="evenodd" clip-rule="evenodd" d="M138.169 63.4396V63.3311C138.169 62.3202 137.324 61.5 136.28 61.5C135.241 61.5 134.399 62.3202 134.399 63.3311V63.4396C134.399 64.4508 135.241 65.27 136.28 65.27C137.324 65.27 138.169 64.4508 138.169 63.4396Z" fill="white"/>
<path fill-rule="evenodd" clip-rule="evenodd" d="M108.69 105.136C109.523 104.31 109.523 102.971 108.69 102.147C107.857 101.32 106.507 101.32 105.679 102.147C99.5301 108.239 89.5326 108.239 83.3862 102.147C77.2395 96.0452 77.2395 86.1236 83.3862 80.0263C86.3623 77.0733 90.3219 75.4464 94.5296 75.4464C98.743 75.4464 102.698 77.0733 105.674 80.0263C106.507 80.854 107.857 80.854 108.69 80.0263C109.523 79.1989 109.523 77.8618 108.69 77.0348C104.909 73.2816 99.8804 71.2153 94.5296 71.2153C89.1814 71.2153 84.154 73.2816 80.3706 77.0348C72.5627 84.781 72.5627 97.3856 80.3706 105.136C84.2752 109.01 89.4003 110.945 94.5319 110.945C99.6581 110.945 104.785 109.01 108.69 105.136Z" fill="white"/>
<path fill-rule="evenodd" clip-rule="evenodd" d="M153.129 118.405V91.0393C153.129 82.4358 160.142 75.4353 168.766 75.4353C177.387 75.4353 184.402 82.4358 184.402 91.0393C184.402 99.6444 177.387 106.642 168.766 106.642C163.794 106.642 160.43 104.747 160.404 104.736C159.397 104.147 158.1 104.481 157.509 105.487C156.922 106.494 157.259 107.785 158.265 108.378C158.438 108.479 162.588 110.864 168.766 110.864C179.72 110.864 188.629 101.971 188.629 91.0393C188.629 80.1079 179.72 71.2153 168.766 71.2153C157.81 71.2153 148.899 80.1079 148.899 91.0393V118.405C148.899 119.569 149.848 120.515 151.014 120.515C152.181 120.515 153.129 119.569 153.129 118.405Z" fill="white"/>
<path fill-rule="evenodd" clip-rule="evenodd" d="M203.565 132.405C203.565 135.769 200.839 138.495 197.475 138.495C194.11 138.495 191.385 135.769 191.385 132.405C191.385 129.04 194.11 126.315 197.475 126.315C200.839 126.315 203.565 129.04 203.565 132.405ZM202.606 132.405C202.606 129.545 200.301 127.206 197.475 127.206C194.648 127.206 192.361 129.545 192.361 132.405C192.361 135.265 194.648 137.603 197.475 137.603C200.301 137.603 202.606 135.265 202.606 132.405ZM200.032 135.736H198.955L197.424 133.011H196.415V135.736H195.49V129.057H197.761C198.922 129.057 199.864 129.932 199.864 131.059C199.864 132.035 199.258 132.64 198.434 132.893L200.032 135.736ZM198.922 131.059C198.922 130.386 198.4 129.881 197.66 129.881H196.415V132.22H197.66C198.4 132.22 198.922 131.732 198.922 131.059Z" fill="black"/>
</g>
</g>
<defs>
<clipPath id="clip0_105_59">
<rect width="145" height="145" fill="white" transform="translate(59 18)"/>
</clipPath>
</defs>
</svg>
