<svg xmlns="http://www.w3.org/2000/svg" xmlns:xlink="http://www.w3.org/1999/xlink" width="264" height="181" viewBox="0 0 264 181"><defs><clipPath id="a"><rect width="191.517" height="118.349" fill="none"/></clipPath></defs><g transform="translate(-309 -17)"><rect width="264" height="181" rx="20" transform="translate(309 17)" fill="none"/><g transform="translate(345.242 47.825)"><g clip-path="url(#a)"><path d="M185.881,95.854V93.96h.767v-.384h-1.966v.384h.767v1.895Zm3.789,0v-2.3h-.6l-.7,1.583-.7-1.583h-.6v2.3h.432V94.128l.647,1.487h.432l.647-1.487v1.727ZM90.53,107.294c.456.408.959.791,1.439,1.175A59.182,59.182,0,1,1,91.945,9.88c-.48.384-.959.791-1.439,1.175a63.754,63.754,0,0,0,.024,96.238M132.33,0A58.988,58.988,0,0,0,99.571,9.88c.48.384.959.791,1.439,1.175a63.705,63.705,0,0,1,0,96.214c-.456.408-.959.791-1.439,1.175A59.174,59.174,0,1,0,132.33,0M95.758,12.686c-.767.6-1.511,1.223-2.23,1.847a59.147,59.147,0,0,0,0,89.307c.719.648,1.487,1.247,2.23,1.847.767-.6,1.511-1.223,2.23-1.847a59.147,59.147,0,0,0,0-89.307c-.719-.648-1.463-1.247-2.23-1.847"/></g></g></g></svg>