<svg xmlns="http://www.w3.org/2000/svg" width="264" height="181" viewBox="0 0 264 181"><g transform="translate(-2179 -17)"><g transform="translate(330)"><rect width="264" height="181" rx="20" transform="translate(1849 17)" fill="none"/></g><g transform="translate(2228.223 49.721)"><path d="M81.242,106.181a112.569,112.569,0,0,1-31.618-4.437A91.752,91.752,0,0,1,23.8,89.833,60.842,60.842,0,0,1,6.386,72.54,37.885,37.885,0,0,1,0,51.964,36.293,36.293,0,0,1,6.386,31.74,57.911,57.911,0,0,1,23.8,15.223,92.85,92.85,0,0,1,49.625,4.085,121.057,121.057,0,0,1,81.242,0a121.293,121.293,0,0,1,31.636,4.082A92.722,92.722,0,0,1,138.7,15.215,57.809,57.809,0,0,1,156.1,31.732a36.292,36.292,0,0,1,6.38,20.232A37.867,37.867,0,0,1,156.1,72.547a60.774,60.774,0,0,1-17.414,17.291,91.664,91.664,0,0,1-25.825,11.91A112.67,112.67,0,0,1,81.242,106.181ZM67.928,79.764c.133,0,.19.17.2.607a6.98,6.98,0,0,0,6.976,6.652c.075,0,.15,0,.225,0a6.992,6.992,0,0,0-.19-13.981v-.1a20.4,20.4,0,0,0-3.525.795h0a.022.022,0,0,1-.02-.011,2.856,2.856,0,0,1,.266-1.068,10.218,10.218,0,0,0,.541-3.722,5.45,5.45,0,0,0-3.382-5.071,5.986,5.986,0,0,0-2.823-.711,5.926,5.926,0,0,0-4.246,1.773c-.1.109-.175.163-.228.163s-.083-.053-.094-.163a5.707,5.707,0,0,0-3.942-5.194,7.58,7.58,0,0,0-8.641,3.088,5.494,5.494,0,0,0-4.91-4.747c-.187-.019-.375-.028-.561-.028a5.515,5.515,0,1,0,3.822,9.5v.19a7.295,7.295,0,0,0,4.567,8.395,5.461,5.461,0,0,0,5.364-.834.822.822,0,0,1,.361-.17.09.09,0,0,1,.072.03c.043.05.05.162.021.386a4.628,4.628,0,0,0,.417,2.69,6.212,6.212,0,0,0,3.486,2.9,4.89,4.89,0,0,0,2.169.5,4.963,4.963,0,0,0,3.629-1.583C67.7,79.852,67.834,79.764,67.928,79.764Zm6.711-8.675c.137,0,.287,0,.444.015h.039A8.961,8.961,0,0,1,82.986,84.37,14.243,14.243,0,0,0,90.4,86.459c.124,0,.249,0,.371-.005a5.035,5.035,0,0,0,3.659-1.591c.214-.3.481-.678.247-.948l-6.387-7.087c-.043-.041-1.047-1-.7-1.383a.407.407,0,0,1,.307-.136c.359,0,.826.4,1.136.668l.013.01c3.015,2.541,6.784,6.376,7.2,6.806.041.06.437.592,1.9.838a6.624,6.624,0,0,0,5.059-1.176,9.9,9.9,0,0,0,1.117-1.137,3.357,3.357,0,0,0-.19-4.208l-7.6-8.451c-.007-.005-.765-.707-.78-1.156a.309.309,0,0,1,.08-.229.409.409,0,0,1,.306-.132,2.188,2.188,0,0,1,1.086.631l.085.072c1.782,1.437,4.1,3.725,6.548,6.148l.017.017.018.018.007.008.156.151.138.135c.684.677,1.353,1.338,2,1.973a6.061,6.061,0,0,0,7.145-.247,5.064,5.064,0,0,0,2.634-4.662,5.381,5.381,0,0,0-1.593-3.108L104.192,58.046c-.17-.152-.731-.68-.768-1.094a.391.391,0,0,1,.085-.289.427.427,0,0,1,.336-.167c.313,0,.679.324.973.583l.016.014.029.027.076.065.021.018.007.008c2.92,2.459,10.511,9.39,12,10.754l.012.011a6.182,6.182,0,0,0,6.9-.132,4.645,4.645,0,0,0,2.273-3.659,5.142,5.142,0,0,0-1.629-4.207l-.1-.085-.252-.219c-6.044-5.282-26.157-22.807-31.185-26.568a14.142,14.142,0,0,0-7.144-3.394c-.267-.018-.522-.027-.758-.027a10.31,10.31,0,0,0-2.654.349,30.872,30.872,0,0,0-9.323,5.552c-3.066,2.458-6.234,5-9.1,5.686a14.41,14.41,0,0,1-2.976.3,14.709,14.709,0,0,1-7.048-1.8,4.493,4.493,0,0,1-1.668-1.894,3.059,3.059,0,0,1,.854-3.337l7.05-7.579,2.481-2.444a47.523,47.523,0,0,0-6.4,1.439,28.3,28.3,0,0,1-7.582,1.4,72.183,72.183,0,0,1-7.579-1.193,125.42,125.42,0,0,1-21.928-7.335A54.1,54.1,0,0,0,6.961,31.2a37.53,37.53,0,0,0-6.2,14.468c1.04.276,3.2.778,5.382,1.278l.018,0,.446.1.332.076a133.259,133.259,0,0,1,23.485,7.141c4.989,2.172,6.987,3.786,7.48,4.229a7.51,7.51,0,0,1,5.6-2.514c.143,0,.288,0,.431.012a7.454,7.454,0,0,1,5.7,3.184,8.672,8.672,0,0,1,5.393-1.9,10.188,10.188,0,0,1,3.23.57A7.335,7.335,0,0,1,62.8,61.969a7.567,7.567,0,0,1,3.106-.664h.041a9.482,9.482,0,0,1,3.791.834A8.011,8.011,0,0,1,74.192,71.1C74.359,71.092,74.493,71.089,74.639,71.089ZM84.994,27.237a10.815,10.815,0,0,1,3.146.47A21.394,21.394,0,0,1,94.4,31.366c5.491,4.133,28.11,23.868,31.137,26.531a210.1,210.1,0,0,1,36.006-11.373c-1.587-9.643-7.469-19.066-16.563-26.531a64.261,64.261,0,0,1-24.826,5.438,43.729,43.729,0,0,1-19.33-4.318,41.488,41.488,0,0,0-16.278-3.7c-11.974.285-17.146,5.455-22.621,10.929l-7.074,7.547c-.084.093-.8.931-.322,1.554.939,1.208,3.287,1.988,5.981,1.988a14.178,14.178,0,0,0,3.077-.339c2.416-.548,5.628-3.126,8.21-5.2l.016-.012A32.983,32.983,0,0,1,81.281,27.9,10.783,10.783,0,0,1,84.994,27.237Z" transform="translate(1.533 2.14)"/><path d="M347.027,353.77c-45.709,0-82.777,24.314-82.777,54.142v3.146c0,31.648,32.406,57.269,82.777,57.269,50.693,0,82.777-25.621,82.777-57.269v-3.165C429.8,378.084,392.736,353.77,347.027,353.77ZM426.07,401.9a189.5,189.5,0,0,0-34.775,11.37c-7.865-6.86-26-22.627-30.909-26.323a21.737,21.737,0,0,0-6.424-3.79,10.745,10.745,0,0,0-3.146-.493,13.266,13.266,0,0,0-4,.663,32.481,32.481,0,0,0-9.475,5.95l-.17.114c-2.843,2.274-5.8,4.605-8.035,5.117a13.265,13.265,0,0,1-2.956.322,7.58,7.58,0,0,1-5.591-1.9c-.133-.19,0-.474.284-.872h0l6.9-7.448c5.42-5.42,10.518-10.518,22.286-10.8h.587a42.014,42.014,0,0,1,15.464,3.658,47.775,47.775,0,0,0,21.206,5.155,54.955,54.955,0,0,0,23.082-5.515c8.414,7.031,13.967,15.54,15.672,24.788Zm-79.044-44.951c24.257,0,45.975,6.955,60.642,17.909a51.165,51.165,0,0,1-20.277,4.586,44.817,44.817,0,0,1-19.728-4.757,44.325,44.325,0,0,0-16.828-3.98h-.663a29.07,29.07,0,0,0-19.178,6.822,38.22,38.22,0,0,0-9.589,1.743,26.152,26.152,0,0,1-6.747,1.308H312.1a131.606,131.606,0,0,1-24.181-6.69c14.516-10.4,35.628-16.923,59.107-16.923ZM285,375.9c10.082,4.112,22.343,7.334,26.228,7.58,1.08,0,2.236.208,3.392.208a28.016,28.016,0,0,0,7.58-1.421c1.459-.4,3.089-.853,4.795-1.175-.455.455-.91.891-1.364,1.364l-7.031,7.58a3.525,3.525,0,0,0-.948,3.79,4.965,4.965,0,0,0,1.9,2.047A14.687,14.687,0,0,0,327,397.773a13.7,13.7,0,0,0,2.956-.3c2.937-.644,6.026-3.127,9.3-5.685a30.889,30.889,0,0,1,9.134-5.458,10.081,10.081,0,0,1,2.558-.341,3.279,3.279,0,0,1,.644,0,13.929,13.929,0,0,1,6.917,3.3c5.685,4.321,31.269,26.626,31.5,26.853a4.908,4.908,0,0,1,1.516,3.79,4.093,4.093,0,0,1-2.028,3.241,6.216,6.216,0,0,1-3.354,1.042,5.5,5.5,0,0,1-2.956-.853c-.095,0-8.831-8.073-12.034-10.783a2.71,2.71,0,0,0-1.5-.815.91.91,0,0,0-.663.3c-.512.625,0,1.478.739,2.047l10.214,10.252a4.871,4.871,0,0,1,1.421,2.767,4.624,4.624,0,0,1-2.407,4.226,6.557,6.557,0,0,1-3.62,1.194,5.1,5.1,0,0,1-2.9-.891l-1.459-1.44c-2.672-2.634-5.439-5.363-7.467-7.05a2.71,2.71,0,0,0-1.516-.8.834.834,0,0,0-.644.284c-.227.265-.379.7.19,1.478a4.613,4.613,0,0,0,.512.569l7.448,8.357a2.842,2.842,0,0,1,.171,3.582l-.265.322c-.227.246-.474.474-.682.663a6.027,6.027,0,0,1-3.639,1.156,5.289,5.289,0,0,1-1.023,0,2.52,2.52,0,0,1-1.459-.606l-.095-.095c-.4-.417-4.169-4.245-7.258-6.841a2.539,2.539,0,0,0-1.44-.777.872.872,0,0,0-.663.3c-.606.663.3,1.687.7,2.047l6.349,7.012a1.193,1.193,0,0,1-.246.417c-.227.3-.985,1.08-3.316,1.383a5.973,5.973,0,0,1-.853,0,14.516,14.516,0,0,1-6.216-1.9,9.475,9.475,0,0,0-8.547-13.493h-.341a8.4,8.4,0,0,0-4.889-8.736,10.119,10.119,0,0,0-3.961-.872,8.165,8.165,0,0,0-2.9.531,7.979,7.979,0,0,0-4.624-3.942,10.216,10.216,0,0,0-3.411-.588,8.907,8.907,0,0,0-5.306,1.706,8.035,8.035,0,0,0-6.235-3.013,8.149,8.149,0,0,0-5.685,2.331c-1.9-1.5-9.817-6.5-30.814-11.276-.985-.227-3.26-.872-4.719-1.308,2.009-9.419,8-18.022,16.866-25.091Zm38.925,54.654-.227-.208h-.227a1.174,1.174,0,0,0-.644.265,5.421,5.421,0,0,1-3.146,1.118,4.945,4.945,0,0,1-1.743-.341,6.784,6.784,0,0,1-4.245-7.883.7.7,0,0,0-.208-.644l-.341-.284-.322.3A5.06,5.06,0,1,1,314.3,418.6l.189,1.364.758-1.156a7.41,7.41,0,0,1,5.894-3.222,7.715,7.715,0,0,1,2.2.341,5.117,5.117,0,0,1,3.582,4.757.614.614,0,0,0,.607.682.834.834,0,0,0,.587-.3,5.1,5.1,0,0,1,3.79-1.554,6.88,6.88,0,0,1,2.786.625c4.757,2.047,2.6,8.073,2.577,8.149-.4.985-.436,1.44,0,1.706h.322a2.9,2.9,0,0,0,.91-.246,8.2,8.2,0,0,1,2.539-.568,6.576,6.576,0,0,1,6.5,6.5,6.483,6.483,0,1,1-12.962.284c0-.3,0-1.1-.7-1.1a1.288,1.288,0,0,0-.8.4,4.567,4.567,0,0,1-3.184,1.44,5.456,5.456,0,0,1-2.085-.455c-3.7-1.5-3.79-4.037-3.6-5.06a.72.72,0,0,0-.284-.55Zm23.1,28.18c-43.966,0-79.593-22.741-79.593-50.94a20.032,20.032,0,0,1,.19-3.373l4.567,1.08c21.433,4.776,28.426,9.722,29.715,10.65a8.054,8.054,0,0,0,7.353,11.2,7.35,7.35,0,0,0,1.478-.133,9.475,9.475,0,0,0,6.064,7.012,7.835,7.835,0,0,0,4.757.322,9.324,9.324,0,0,0,8.149,5.325,6.822,6.822,0,0,0,2.464-.455,9.475,9.475,0,0,0,15.521,3.013,17.7,17.7,0,0,0,8.016,2.388,8.046,8.046,0,0,0,1.213,0,7.391,7.391,0,0,0,5.439-2.653,3.572,3.572,0,0,0,.341-.55,9.024,9.024,0,0,0,2.577.4,8.679,8.679,0,0,0,5.174-1.9,7.22,7.22,0,0,0,3.07-4.453h0a8.3,8.3,0,0,0,1.724.19,9.628,9.628,0,0,0,5.325-1.687,7.58,7.58,0,0,0,3.79-6.841,8.675,8.675,0,0,0,1.762.19,9.115,9.115,0,0,0,5-1.535,7.258,7.258,0,0,0,3.468-5.685,7.731,7.731,0,0,0-1.1-4.567,206.3,206.3,0,0,1,33.05-10.366c0,.834.095,1.687.095,2.539,0,28.1-35.646,50.9-79.612,50.9Z" transform="translate(-264.25 -353.77)"/></g></g></svg>