<svg xmlns="http://www.w3.org/2000/svg" width="264" height="181" viewBox="0 0 264 181"><g transform="translate(-1542 -17)"><rect width="264" height="181" rx="20" transform="translate(1542 17)" fill="none"/><g transform="translate(1602.964 35.964)"><path d="M0,0H142.071V142.071H0Z" fill="rgba(255,255,255,0)" fill-rule="evenodd"/><path d="M139.369,8.818v129.6H5.512V8.818H139.369Zm-26.682,122.1a5.056,5.056,0,0,0,5.058-4.605L127.7,20.5a3.919,3.919,0,0,0-3.942-4.33H20.619A3.919,3.919,0,0,0,16.678,20.5l9.886,105.807a5.058,5.058,0,0,0,5.06,4.608H54.71v5.26H88.437v-5.26Z" transform="translate(-1.449 -2.319)" fill-rule="evenodd"/><path d="M52.59,86.685H41.653v19.664H52.59v-4.573H47.865V98.423H52.59V94.612H47.865V91.068H52.59V86.685Zm25.686,0,2.9,19.664h7.813l3.848-19.664H88.641L86.126,98.651,84.144,86.685H78.276Zm-1.181,0H66.2v19.664h10.9v-4.573H72.407V98.423h4.688V94.612H72.407V91.068h4.688V86.685Zm27.819,0H93.976v19.664h10.937v-4.573h-4.726V98.423h4.726V94.612h-4.726V91.068h4.726V86.685Zm-43.71,0H54.991v19.664h9.947v-4.573H61.2V86.685Zm45.959,0v19.664H113.3V92.492c0-1.409,2.667-1.409,2.667.035v13.822h6.212V89.62a3.558,3.558,0,0,0-3.724-3.178,5.644,5.644,0,0,0-3.973,1.807c-.531.517-1.643.464-1.182-1.563h-6.134Zm-9.756,21.456H68.824c-2.058,13.017-2.594,16.414-2.439,32.544H96.224c0-9.016-.118-13.276,0-17.523C96.336,119.317,96.641,115.483,97.407,108.141Zm16.921-72.748H43.291V61.154H81.667A88.139,88.139,0,0,1,114.327,35.393Z" transform="translate(-10.953 -9.307)" fill-rule="evenodd"/><path d="M82.914,84.707h28.62c3.268-12.919,10.245-18.912,20.96-22.483v-27.4A77.336,77.336,0,0,0,82.914,84.707Zm30.308,31.373a3.145,3.145,0,1,1,3.145-3.145,3.145,3.145,0,0,1-3.145,3.145Zm0-.565a2.579,2.579,0,1,0-2.578-2.58,2.578,2.578,0,0,0,2.578,2.58Z" transform="translate(-21.802 -9.157)" fill-rule="evenodd"/><path d="M122.96,140.44v1.554h-.542v-3.586h1.365c.848,0,1.267.313,1.267,1.021a.933.933,0,0,1-.929.987l1.019,1.58h-.609l-.946-1.554h-.626Zm0-.46h.649c.461,0,.873-.033.873-.584,0-.444-.4-.526-.782-.526h-.74Z" transform="translate(-32.19 -36.394)" fill-rule="evenodd"/></g></g></svg>