<svg xmlns="http://www.w3.org/2000/svg" xmlns:xlink="http://www.w3.org/1999/xlink" width="264" height="181" viewBox="0 0 264 181"><defs><clipPath id="a"><path d="M1909.906-481.226c-.116,9.14,8.145,14.241,14.369,17.273,6.394,3.112,8.542,5.107,8.517,7.889-.049,4.259-5.1,6.138-9.829,6.211-8.249.128-13.045-2.227-16.858-4.009l-2.971,13.9c3.825,1.763,10.909,3.3,18.255,3.368,17.242,0,28.524-8.511,28.585-21.709.067-16.748-23.167-17.676-23.008-25.162.055-2.27,2.221-4.692,6.968-5.308a30.9,30.9,0,0,1,16.187,2.837l2.886-13.453a44,44,0,0,0-15.363-2.819c-16.23,0-27.645,8.627-27.737,20.977m70.831-19.817a7.482,7.482,0,0,0-6.986,4.655l-24.631,58.811h17.23l3.429-9.475h21.056l1.989,9.475h15.187l-13.252-63.466h-14.021m2.41,17.145,4.972,23.832H1974.5l8.646-23.832m-94.132-17.145-13.582,63.466h16.419l13.576-63.466h-16.413m-24.289,0-17.09,43.2-6.913-36.73a7.654,7.654,0,0,0-7.572-6.467h-27.938l-.391,1.843c5.735,1.245,12.252,3.252,16.2,5.4,2.416,1.312,3.105,2.459,3.9,5.577l13.094,50.647h17.352l26.6-63.466h-17.242" transform="translate(-1804.822 502.203)"/></clipPath></defs><g transform="translate(-17 -17)"><rect width="264" height="181" rx="20" transform="translate(17 17)" fill="none"/><g transform="translate(-287.297 -462.731)"><g transform="translate(334.703 537.424)"><g transform="translate(0)" clip-path="url(#a)"><g transform="translate(-21.278 -65.893)"><path d="M0-106.976,200.2-180.7,245.744-57.032,45.547,16.7" transform="translate(0 180.705)"/></g></g></g></g></g></svg>