<svg xmlns="http://www.w3.org/2000/svg" width="264" height="181" viewBox="0 0 264 181"><g transform="translate(-708 -30)"><g transform="translate(-196 13)"><rect width="264" height="181" rx="20" transform="translate(904 17)" fill="none"/></g><g transform="translate(-144.077 -2.303)"><path d="M-2410.651-3657.079H-2548.2v-65.309h-.166v-11.838l.166-.379v8.76l6.807-15.9h5.745l6.578,15.319v-15.319h6.312l5.061,10.978,4.652-10.978h6.439v16.181h-3.966l-.011-12.671-5.611,12.671h-3.4l-5.623-12.684v12.684h-7.864l-1.487-3.61h-8.053l-1.5,3.61h-4.079v3.177h6.443l1.49-3.595h3.334l1.487,3.595h13v-2.748l1.16,2.76h6.75l1.161-2.8v2.788h32.313l-.016-5.9h.626c.438.016.565.053.565.781v5.12h16.713v-1.374a13.117,13.117,0,0,0,6.2,1.374h7.032l1.5-3.595h3.335l1.471,3.595h13.549v-3.414l2.053,3.414h10.857v-22.566h-10.746v2.666l-1.5-2.666h-11.026v2.666l-1.38-2.666h-14.893a13.326,13.326,0,0,0-6.454,1.318v-1.318h-10.276v1.318a6.26,6.26,0,0,0-4.371-1.318h-37.546l-2.518,5.828-2.589-5.828H-2532.3v2.666l-1.3-2.666h-10.083l-4.52,10.349v-60.521h137.551v86.425a4.772,4.772,0,0,1,.815,3.029,5.239,5.239,0,0,1-.816,3.035v45.559Zm-86.607-40.966h0l3.1,3.509,12.608.013v-5.313h1.24c.19,0,.362,0,.525,0a12.34,12.34,0,0,0,4.861-.8v6.095h10.4v-5.883h.5c.634,0,.7.021.7.665v5.219h31.593a8.906,8.906,0,0,0,5.264-1.446v1.446h10.02a13.373,13.373,0,0,0,5.674-1.041v-4.208c-.927,1.355-2.743,2.072-5.249,2.072h-7.471v-3.469h7.44a2.169,2.169,0,0,0,1.566-.4,1.428,1.428,0,0,0,.457-1.055,1.333,1.333,0,0,0-.473-1.07,1.945,1.945,0,0,0-1.361-.361l-.716-.021c-3.49-.094-7.447-.2-7.447-4.986,0-2.33,1.458-4.82,5.548-4.82h7.7v-3.22h-7.155a8.117,8.117,0,0,0-4.842,1.322v-1.322h-10.587c-1.5,0-3.6.346-4.618,1.322v-1.322h-18.907v1.322c-1.78-1.285-4.868-1.322-5.215-1.322h-12.471v1.322c-1.129-1.093-3.587-1.322-5.45-1.322h-13.957l-3.192,3.458-2.992-3.458H-2521v22.582h20.458l3.288-3.509Zm79.444-12.406a2.671,2.671,0,0,0-1.565.292,1.251,1.251,0,0,0-.567,1.164,1.223,1.223,0,0,0,.846,1.2,4.4,4.4,0,0,0,1.492.183l2.094.056c2.215.056,3.569.458,4.391,1.3a1.766,1.766,0,0,1,.3.327l.057.073v-4.6Zm-120.8-28.545h0l-2.631,6.448h5.279l-2.649-6.448Zm70.911,41.285h-3.886V-3713.9h8.929a9.423,9.423,0,0,1,4.655.763,3.812,3.812,0,0,1,1.988,3.594,4.65,4.65,0,0,1-.99,2.97,4.383,4.383,0,0,1-1.751,1.336,4.191,4.191,0,0,1,1.893,1.356,4.714,4.714,0,0,1,.639,2.958v3.206h-3.88v-2.026c0-.073,0-.149,0-.227v-.07a4.217,4.217,0,0,0-.628-2.871c-.587-.6-1.486-.719-2.839-.719h-4.133v5.912Zm0-12.837v3.635h4.7a3.745,3.745,0,0,0,1.911-.332,1.755,1.755,0,0,0,.8-1.556,1.543,1.543,0,0,0-.8-1.454,3.749,3.749,0,0,0-1.845-.292Zm-34.491,12.836h-15.319V-3713.9h15.555l4.76,5.305,4.918-5.305h12.358a8.28,8.28,0,0,1,4.409.985,4.73,4.73,0,0,1,2.108,4.345,4.815,4.815,0,0,1-2.1,4.4,8.64,8.64,0,0,1-4.635,1.026h-4.824v5.427h-7.52l-4.761-5.358-4.949,5.358Zm13.376-14.448h0l-5.939,6.383,5.939,6.593v-12.976Zm-24.842,7.855v3.22h9.508l4.418-4.749-4.233-4.717h-9.694v2.943h8.489v3.3Zm28.7-6.243v4.121h5c1.531,0,2.41-.78,2.41-2.139,0-1.638-1.286-1.982-2.364-1.982Zm53.849,12.836h-7.531v-3.469h7.5a2.237,2.237,0,0,0,1.58-.4,1.443,1.443,0,0,0,.454-1.055,1.386,1.386,0,0,0-.47-1.07,2.026,2.026,0,0,0-1.377-.361c-.235-.008-.473-.014-.714-.021-3.484-.094-7.433-.2-7.433-4.986,0-2.33,1.452-4.82,5.529-4.82h7.755v3.445h-7.094a2.622,2.622,0,0,0-1.551.292,1.235,1.235,0,0,0-.58,1.164,1.242,1.242,0,0,0,.847,1.2,4.406,4.406,0,0,0,1.506.186l2.081.055c2.219.054,3.581.456,4.415,1.3a4.514,4.514,0,0,1,1.156,3.43C-2425.039-3699.431-2427.082-3697.713-2431.113-3697.713Zm-9.849,0h-12.909V-3713.9h12.909v3.346h-9.057v2.943h8.835v3.3h-8.835v3.22l9.057.016v3.355Zm7.532-27.853h-7.875l-1.5-3.61h-8.036l-1.461,3.61h-4.524c-1.158,0-4.023-.174-5.607-1.79-1.43-1.445-2.068-3.35-2.068-6.177,0-2.873.643-4.824,2.085-6.327,1.231-1.27,3.152-1.888,5.874-1.888h3.744v3.467h-3.665a3.7,3.7,0,0,0-2.977.958,5.365,5.365,0,0,0-1.113,3.665,5.6,5.6,0,0,0,1.066,3.8,3.773,3.773,0,0,0,2.695.836h1.738l5.45-12.724h5.795l6.548,15.3v-15.3h5.889l6.8,11.267v-11.267h3.964v16.177h-5.483l-7.33-12.145v12.145ZM-2446.807-3739h0l-2.661,6.448h5.337l-2.676-6.448Zm-37.451,13.432h-3.867v-16.181h8.894c1.956,0,3.437.055,4.685.774a3.8,3.8,0,0,1,1.954,3.585,4.681,4.681,0,0,1-.986,2.973,4.342,4.342,0,0,1-1.738,1.34,4.476,4.476,0,0,1,1.914,1.364,4.653,4.653,0,0,1,.64,2.968v3.176h-3.9l-.014-2.041c0-.1,0-.2,0-.3a4.271,4.271,0,0,0-.612-2.847c-.573-.578-1.468-.692-2.819-.692h-4.15v5.884Zm0-12.812v3.595h4.7a3.529,3.529,0,0,0,1.915-.334,1.66,1.66,0,0,0,.8-1.537,1.49,1.49,0,0,0-.812-1.431,3.973,3.973,0,0,0-1.833-.292Zm17.856,12.811h-3.944v-16.181h3.944v16.18Zm-24.4,0h-12.921v-16.181h12.921v3.371h-9.052v2.915h8.833v3.317h-8.833v3.231h9.052v3.347Z" transform="translate(3462.977 3847.092)" fill="#fff" stroke="rgba(0,0,0,0)" stroke-miterlimit="10" stroke-width="1"/></g></g></svg>