<svg xmlns="http://www.w3.org/2000/svg" xmlns:xlink="http://www.w3.org/1999/xlink" width="264" height="181" viewBox="0 0 264 181"><defs><clipPath id="a"><rect width="210.998" height="68.672" fill="#fff"/></clipPath></defs><g transform="translate(-2652 -30)"><g transform="translate(1110 13)"><rect width="264" height="181" rx="20" transform="translate(1542 17)" fill="none"/></g><g transform="translate(2678.501 76.664)"><g clip-path="url(#a)"><path d="M723.543,142.145H675.577a1.6,1.6,0,0,0-1.6,1.6v35.669a1.6,1.6,0,0,0,1.6,1.6h47.967a1.6,1.6,0,0,0,1.6-1.6V143.746a1.6,1.6,0,0,0-1.6-1.6" transform="translate(-548.433 -115.667)" fill="#fff"/><path d="M738.914,142.145H676.072a1.941,1.941,0,0,0-2.094,1.738V182.6a1.941,1.941,0,0,0,2.094,1.737h62.842a1.942,1.942,0,0,0,2.094-1.737V143.883a1.942,1.942,0,0,0-2.094-1.738" transform="translate(-548.433 -115.667)"/><path d="M-6278.563-3412.992h-62.843a1.943,1.943,0,0,1-2.095-1.737v-38.719a1.944,1.944,0,0,1,2.095-1.739h3.593l1.388-8.374a1.858,1.858,0,0,1,1.939-1.406,2.529,2.529,0,0,1,.411.034l4.23.7,3.673-9.831a1.755,1.755,0,0,1,1.71-1.053,2.437,2.437,0,0,1,.859.158l3.083,1.151,4.017-7.062a1.68,1.68,0,0,1,1.5-.8,2.4,2.4,0,0,1,1.178.321l54.622,31.074a1.944,1.944,0,0,1,.96,2.546l-18.1,31.826-.068.18-.058.347v.642A1.942,1.942,0,0,1-6278.563-3412.992Zm-24.318-11.459a9.073,9.073,0,0,0,3.2,4.472,8.849,8.849,0,0,0,5.32,1.767,8.89,8.89,0,0,0,6.324-2.63,8.89,8.89,0,0,0,2.63-6.323V-3441.5h-3.9v9.1a4.059,4.059,0,0,1-4.055,4.053,4.06,4.06,0,0,1-4.057-4.053v-9.1h-3.9v9.1a7.966,7.966,0,0,0,7.957,7.957,7.922,7.922,0,0,0,4.2-1.216,5.451,5.451,0,0,1-5.2,3.873,5.4,5.4,0,0,1-4.631-2.66Zm20.481-3.477a1.9,1.9,0,0,0-1.923,1.866,1.886,1.886,0,0,0,1.923,1.89,1.879,1.879,0,0,0,1.909-1.89A1.868,1.868,0,0,0-6282.4-3427.928Zm-57.078-19.577v23.321h3.948v-6.954h3.209a8.107,8.107,0,0,0,8.387-8.18,8.106,8.106,0,0,0-8.387-8.177h-3.209v-.011Zm26.052,6a9.163,9.163,0,0,0-6.31,2.4,8.462,8.462,0,0,0-2.643,6.255,8.465,8.465,0,0,0,2.643,6.256,9.161,9.161,0,0,0,6.31,2.4,9.364,9.364,0,0,0,5.093-1.461v1.194h3.859v-8.393a8.453,8.453,0,0,0-2.641-6.242A9.153,9.153,0,0,0-6313.427-3441.5Zm31.036,16.931a1.441,1.441,0,0,1-1.455-1.49,1.453,1.453,0,0,1,1.445-1.49,1.436,1.436,0,0,1,1.433,1.5A1.436,1.436,0,0,1-6282.391-3424.572Zm-.306-1.264h.205c.236,0,.352.089.387.3.012.046.023.09.034.132a.983.983,0,0,0,.113.325h.469a1.449,1.449,0,0,1-.14-.47.555.555,0,0,0-.339-.454v-.024a.474.474,0,0,0,.385-.431.53.53,0,0,0-.18-.411,1.22,1.22,0,0,0-.65-.137,3.586,3.586,0,0,0-.718.061v1.866h.433v-.754Zm.216-.306h-.207v-.535a1.084,1.084,0,0,1,.241-.022c.258,0,.4.1.4.283S-6282.2-3426.142-6282.48-3426.142Zm-30.9-1.6h-.092a4.963,4.963,0,0,1-5.045-5.1,4.962,4.962,0,0,1,5.045-5.1h.092a4.963,4.963,0,0,1,5.047,5.1A4.963,4.963,0,0,1-6313.381-3427.742Zm-18.94-7.318h-3.209v-8.509h3.209a4.229,4.229,0,0,1,4.462,4.252A4.231,4.231,0,0,1-6332.321-3435.06Z" transform="translate(6469.045 3481.664)" fill="#fff" stroke="rgba(0,0,0,0)" stroke-miterlimit="10" stroke-width="1"/><path d="M133.863,209.611c-5.136,0-9.4,3.7-9.4,9.093a9.405,9.405,0,1,0,9.4-9.093m.049,14.45h-.1a5.358,5.358,0,0,1,0-10.715l.047,0,.049,0a5.358,5.358,0,0,1,0,10.715" transform="translate(-101.279 -170.566)" fill="#fff"/><path d="M19.205,192.311a8.462,8.462,0,1,1-.052-10.9l2.943-2.58a12.633,12.633,0,0,0-9.53-4.3,12.362,12.362,0,1,0,0,24.721,12.623,12.623,0,0,0,9.575-4.356Z" transform="translate(0 -142.02)" fill="#fff"/><path d="M352.2,209.48a9.086,9.086,0,0,0-9.414,9.106v16.52h4.057v-8.949a9.862,9.862,0,0,0,5.357,1.536,9.111,9.111,0,1,0,0-18.213m.047,14.471h-.1a5.366,5.366,0,0,1,0-10.732l.049,0,.047,0a5.366,5.366,0,0,1,0,10.732" transform="translate(-278.931 -170.459)" fill="#fff"/><path d="M242.969,209.48a9.085,9.085,0,0,0-9.412,9.106v16.52h4.057v-8.949a9.854,9.854,0,0,0,5.355,1.536,9.111,9.111,0,1,0,0-18.213m.047,14.471h-.1a5.366,5.366,0,0,1,0-10.732l.049,0,.047,0a5.366,5.366,0,0,1,0,10.732" transform="translate(-190.052 -170.459)" fill="#fff"/><path d="M458.02,209.479a9.115,9.115,0,0,0,0,18.213c2.87,0,5.894-.895,7.488-3.141l-2.387-2.386a5.933,5.933,0,0,1-4.605,1.95c-3.127,0-5.22-1.842-5.22-4.457h13.39a10.507,10.507,0,0,0,.055-1.071c0-5.4-3.392-9.107-8.721-9.107m-4.649,7.3c0-1.614,2.1-3.821,4.9-3.821,1.845,0,4.3,1.4,4.3,3.821Z" transform="translate(-365.606 -170.458)" fill="#fff"/><path d="M555.16,191.341V176H551.1v15.344a9.054,9.054,0,0,0,9.25,9.1V196.7a5.216,5.216,0,0,1-5.191-5.362" transform="translate(-448.445 -143.213)" fill="#fff"/></g></g></g></svg>