<svg xmlns="http://www.w3.org/2000/svg" width="264" height="181" viewBox="0 0 264 181"><g transform="translate(-599 -17)"><rect width="264" height="181" rx="20" transform="translate(599 17)" fill="none"/><path d="M102.881,49.235a43.891,43.891,0,0,1-.852,8.207c-4.272,22.29-18.9,29.992-37.573,29.992H61.57a4.653,4.653,0,0,0-4.58,3.98l-4.05,25.674a4.661,4.661,0,0,1-4.58,3.97H34.56a3.2,3.2,0,0,1-3.168-3.692l6.991-44.791.313-.282h10.87c26.406,0,42.92-13.205,47.782-38.173,4.1,4.106,5.533,9.463,5.533,15.117ZM31.175,70.682c.585-4.166,2.315-5.937,6.986-5.947l11.4-.01c23.071,0,36.307-10.542,40.468-32.231C94.064,11.642,79.426,0,59.608,0H22.565a5.324,5.324,0,0,0-5.236,4.545C5.708,79.373,2.348,98.4,2.005,104.2a3.213,3.213,0,0,0,3.2,3.39H25.329l5.846-36.912Z" transform="translate(678.559 46.471)" fill="#fff"/></g></svg>