<svg width="264" height="181" viewBox="0 0 264 181" fill="none" xmlns="http://www.w3.org/2000/svg">
<path d="M179 80.1779C178.975 82.8191 178.701 85.4521 178.181 88.042C174.073 109.401 160.008 116.781 142.053 116.781H139.278C138.208 116.786 137.175 117.174 136.367 117.874C135.559 118.574 135.029 119.539 134.874 120.595L130.98 145.196C130.822 146.249 130.291 147.211 129.484 147.909C128.676 148.606 127.645 148.993 126.576 149H113.307C112.863 149.001 112.423 148.906 112.019 148.721C111.615 148.536 111.256 148.267 110.966 147.93C110.677 147.594 110.464 147.2 110.342 146.773C110.22 146.347 110.193 145.9 110.261 145.462L116.983 102.543L117.284 102.272H127.736C153.126 102.272 169.005 89.6192 173.68 65.6944C177.622 69.6289 179 74.762 179 80.1798V80.1779ZM110.053 100.729C110.615 96.7369 112.278 95.0398 116.77 95.0303L127.731 95.0207C149.915 95.0207 162.641 84.9191 166.642 64.1363C170.522 44.1556 156.447 33 137.392 33H101.774C100.551 33.007 99.371 33.45 98.4476 34.2489C97.5241 35.0477 96.9181 36.1496 96.7392 37.3551C85.5652 109.057 82.3345 127.289 82.0047 132.846C81.9816 133.264 82.044 133.681 82.1881 134.074C82.3322 134.466 82.5549 134.825 82.8428 135.129C83.1307 135.433 83.4776 135.676 83.8625 135.842C84.2474 136.008 84.6622 136.094 85.0816 136.095H104.431L110.053 100.725V100.729Z" fill="white"/>
</svg>
