<svg width="264" height="181" viewBox="0 0 264 181" fill="none" xmlns="http://www.w3.org/2000/svg">
<g clip-path="url(#clip0_107_171)">
<path d="M61.033 85.4763C53.5986 83.8621 50.2867 83.2305 50.2867 80.3631C50.2867 77.6661 52.528 76.3227 57.0106 76.3227C60.9529 76.3227 63.8347 78.0471 65.956 81.4257C66.1161 81.6864 66.4461 81.7766 66.7163 81.6364L75.0812 77.4054C75.3814 77.2551 75.4915 76.8741 75.3214 76.5834C71.8494 70.5577 65.4356 67.2593 56.9906 67.2593C45.8941 67.2593 39 72.7334 39 81.4358C39 90.6797 47.395 93.0157 54.8394 94.63C62.2838 96.244 65.6057 96.8756 65.6057 99.7431C65.6057 102.61 63.1843 103.964 58.3514 103.964C53.8888 103.964 50.5768 101.919 48.5757 97.9485C48.4256 97.6577 48.0754 97.5374 47.7852 97.6878L39.4403 101.828C39.1501 101.979 39.03 102.33 39.1801 102.63C42.4921 109.298 49.2861 113.047 58.3614 113.047C69.9183 113.047 76.9025 107.663 76.9025 98.6904C76.9025 89.7172 68.4674 87.1105 61.033 85.4963V85.4763Z" fill="white"/>
<path d="M105.86 67.2594C101.117 67.2594 96.9245 68.9437 93.9128 71.9415C93.7227 72.1219 93.4124 71.9915 93.4124 71.7308V52.5915C93.4124 52.2607 93.1523 52 92.822 52H82.356C82.0257 52 81.7656 52.2607 81.7656 52.5915V111.995C81.7656 112.326 82.0257 112.586 82.356 112.586H92.822C93.1523 112.586 93.4124 112.326 93.4124 111.995V85.9375C93.4124 80.9045 97.2648 77.0446 102.458 77.0446C107.651 77.0446 111.413 80.8244 111.413 85.9375V111.995C111.413 112.326 111.673 112.586 112.003 112.586H122.47C122.8 112.586 123.06 112.326 123.06 111.995V85.9375C123.06 74.9892 115.896 67.2694 105.86 67.2694V67.2594Z" fill="white"/>
<path d="M144.315 65.5652C138.632 65.5652 133.289 67.2997 129.466 69.8162C129.206 69.9866 129.116 70.3375 129.276 70.6082L133.889 78.4985C134.059 78.7792 134.419 78.8795 134.699 78.709C137.601 76.9545 140.923 76.0422 144.315 76.0622C153.451 76.0622 160.164 82.5189 160.164 91.051C160.164 98.3196 154.791 103.704 147.977 103.704C142.424 103.704 138.572 100.465 138.572 95.8934C138.572 93.2767 139.682 91.1311 142.574 89.6172C142.874 89.4567 142.984 89.0859 142.804 88.7951L138.452 81.4161C138.312 81.1754 138.011 81.0652 137.741 81.1655C131.908 83.331 127.815 88.5445 127.815 95.5425C127.815 106.13 136.23 114.03 147.967 114.03C161.675 114.03 171.531 104.516 171.531 90.8704C171.531 76.2428 160.064 65.5552 144.295 65.5552L144.315 65.5652Z" fill="white"/>
<path d="M202.136 67.1795C196.843 67.1795 192.12 69.1345 188.668 72.5833C188.478 72.7738 188.168 72.6336 188.168 72.3729V68.2222C188.168 67.8913 187.908 67.6306 187.577 67.6306H177.381C177.051 67.6306 176.791 67.8913 176.791 68.2222V127.535C176.791 127.866 177.051 128.127 177.381 128.127H187.847C188.178 128.127 188.438 127.866 188.438 127.535V108.085C188.438 107.824 188.748 107.694 188.938 107.864C192.38 111.073 196.933 112.947 202.146 112.947C214.423 112.947 224 102.992 224 90.0585C224 77.125 214.413 67.1694 202.146 67.1694L202.136 67.1795ZM200.165 102.902C193.181 102.902 187.888 97.3372 187.888 89.9782C187.888 82.6194 193.171 77.055 200.165 77.055C207.159 77.055 212.432 82.529 212.432 89.9782C212.432 97.4276 207.229 102.902 200.155 102.902H200.165Z" fill="white"/>
</g>
<defs>
<clipPath id="clip0_107_171">
<rect width="185" height="77" fill="white" transform="translate(39 52)"/>
</clipPath>
</defs>
</svg>
