<svg xmlns="http://www.w3.org/2000/svg" width="264" height="181" viewBox="0 0 264 181"><g transform="translate(-1849 -17)"><rect width="264" height="181" rx="20" transform="translate(1849 17)" fill="none"/><g transform="translate(1662.51 -383.954)"><g transform="translate(337.818 460.296)"><path d="M843.985,512.367H812.253V497.734h28.761V485.792H812.085v-6.728h31.9v-14.8H793.079v61.894h50.906Z" transform="translate(-793.079 -464.264)" fill="#fff"/></g><g transform="translate(395.451 460.296)"><path d="M1077.3,464.264h19.51V489.6l-11.886-16.819v11.773H1077.3Z" transform="translate(-1077.297 -464.264)" fill="#fff"/></g><g transform="translate(395.451 489.225)"><path d="M1096.807,606.925v32.965H1077.3v-28.7h7.737v12.334Z" transform="translate(-1077.297 -606.925)" fill="#fff"/></g><g transform="translate(282.427 460.296)"><path d="M547.169,490.726h-8.746V476.934h8.522c3.176,0,5.606,2.426,5.606,6.751,0,5.719-3.644,7.041-5.382,7.041m3.7-26.462H519.922v61.782h18.5V503.732h12c15.362,0,20.519-11.885,20.519-21.529,0-10.652-7.849-17.94-20.071-17.94" transform="translate(-519.922 -464.264)" fill="#fff"/></g><g transform="translate(222.018 459.287)"><path d="M259.272,477.872s-1.683-6.957-9.923-7.064c-6.475-.084-7.737,4.373-6.644,6.559,1.189,2.379,5.634,3.7,9.839,4.289s25.229,3.868,25.229,19.09-9.587,22.874-26.658,22.874-24.64-4.709-29.1-22.117l18.669-.841s.084,10.26,10.68,10.26,8.578-7.485,8.578-7.485.252-5.466-14.212-7.148-18.585-9.587-18.585-9.587-2.186-5.046-2.186-8.83,2.271-18.585,23.967-18.585c21.4,0,25.357,7.717,26.446,17.824.016.141.03.283.044.425Z" transform="translate(-222.018 -459.287)" fill="#fff"/></g></g></g></svg>