<svg xmlns="http://www.w3.org/2000/svg" width="264" height="181" viewBox="0 0 264 181"><g transform="translate(-3300 -30)"><g transform="translate(1758 13)"><rect width="264" height="181" rx="20" transform="translate(1542 17)" fill="none"/></g><g transform="translate(3308.312 -69.72)"><g transform="translate(31.64 143.61)"><path d="M31.64,145.661a2.057,2.057,0,0,1,2.051-2.051h8.431a2.057,2.057,0,0,1,2.051,2.051v88.117a2.057,2.057,0,0,1-2.051,2.051H33.691a2.057,2.057,0,0,1-2.051-2.051Z" transform="translate(-31.64 -143.61)" fill="#fff"/><path d="M31.64,145.661a2.057,2.057,0,0,1,2.051-2.051h8.431a2.057,2.057,0,0,1,2.051,2.051v88.117a2.057,2.057,0,0,1-2.051,2.051H33.691a2.057,2.057,0,0,1-2.051-2.051Z" transform="translate(-31.64 -143.61)" fill="#fff"/></g><g transform="translate(51.275 143.61)"><path d="M79.5,145.661a2.057,2.057,0,0,1,2.051-2.051h3.294a2.057,2.057,0,0,1,2.051,2.051v88.117a2.057,2.057,0,0,1-2.051,2.051H81.551a2.057,2.057,0,0,1-2.051-2.051Z" transform="translate(-79.5 -143.61)" fill="#fff"/><path d="M79.5,145.661a2.057,2.057,0,0,1,2.051-2.051h3.294a2.057,2.057,0,0,1,2.051,2.051v88.117a2.057,2.057,0,0,1-2.051,2.051H81.551a2.057,2.057,0,0,1-2.051-2.051Z" transform="translate(-79.5 -143.61)" fill="#fff"/></g><g transform="translate(65.774 143.61)"><path d="M114.84,145.661a2.057,2.057,0,0,1,2.051-2.051h11.426a2.057,2.057,0,0,1,2.051,2.051v88.117a2.057,2.057,0,0,1-2.051,2.051H116.891a2.057,2.057,0,0,1-2.051-2.051Z" transform="translate(-114.84 -143.61)" fill="#fff"/><path d="M114.84,145.661a2.057,2.057,0,0,1,2.051-2.051h11.426a2.057,2.057,0,0,1,2.051,2.051v88.117a2.057,2.057,0,0,1-2.051,2.051H116.891a2.057,2.057,0,0,1-2.051-2.051Z" transform="translate(-114.84 -143.61)" fill="#fff"/></g><g transform="translate(88.405 143.61)"><path d="M170,145.661a2.057,2.057,0,0,1,2.051-2.051h4.8a2.057,2.057,0,0,1,2.051,2.051v88.117a2.057,2.057,0,0,1-2.051,2.051h-4.8A2.057,2.057,0,0,1,170,233.779Z" transform="translate(-170 -143.61)" fill="#fff"/><path d="M170,145.661a2.057,2.057,0,0,1,2.051-2.051h4.8a2.057,2.057,0,0,1,2.051,2.051v88.117a2.057,2.057,0,0,1-2.051,2.051h-4.8A2.057,2.057,0,0,1,170,233.779Z" transform="translate(-170 -143.61)" fill="#fff"/></g><g transform="translate(104.405 143.61)"><path d="M209,145.661a2.057,2.057,0,0,1,2.051-2.051h2.334a2.057,2.057,0,0,1,2.051,2.051v88.117a2.057,2.057,0,0,1-2.051,2.051h-2.334A2.057,2.057,0,0,1,209,233.779Z" transform="translate(-209 -143.61)" fill="#fff"/><path d="M209,145.661a2.057,2.057,0,0,1,2.051-2.051h2.334a2.057,2.057,0,0,1,2.051,2.051v88.117a2.057,2.057,0,0,1-2.051,2.051h-2.334A2.057,2.057,0,0,1,209,233.779Z" transform="translate(-209 -143.61)" fill="#fff"/></g><g transform="translate(117.944 143.61)"><path d="M242,145.661a2.057,2.057,0,0,1,2.051-2.051h12.591a2.057,2.057,0,0,1,2.051,2.051v88.117a2.057,2.057,0,0,1-2.051,2.051H244.051A2.057,2.057,0,0,1,242,233.779Z" transform="translate(-242 -143.61)" fill="#fff"/><path d="M242,145.661a2.057,2.057,0,0,1,2.051-2.051h12.591a2.057,2.057,0,0,1,2.051,2.051v88.117a2.057,2.057,0,0,1-2.051,2.051H244.051A2.057,2.057,0,0,1,242,233.779Z" transform="translate(-242 -143.61)" fill="#fff"/></g><g transform="translate(141.739 143.61)"><path d="M300,145.661a2.057,2.057,0,0,1,2.051-2.051h5.206a2.057,2.057,0,0,1,2.051,2.051v88.117a2.057,2.057,0,0,1-2.051,2.051h-5.206A2.057,2.057,0,0,1,300,233.779Z" transform="translate(-300 -143.61)" fill="#fff"/><path d="M300,145.661a2.057,2.057,0,0,1,2.051-2.051h5.206a2.057,2.057,0,0,1,2.051,2.051v88.117a2.057,2.057,0,0,1-2.051,2.051h-5.206A2.057,2.057,0,0,1,300,233.779Z" transform="translate(-300 -143.61)" fill="#fff"/></g><g transform="translate(158.15 143.61)"><path d="M340,145.661a2.057,2.057,0,0,1,2.051-2.051h8.488a2.057,2.057,0,0,1,2.051,2.051v88.117a2.057,2.057,0,0,1-2.051,2.051h-8.488A2.057,2.057,0,0,1,340,233.779Z" transform="translate(-340 -143.61)" fill="#fff"/><path d="M340,145.661a2.057,2.057,0,0,1,2.051-2.051h8.488a2.057,2.057,0,0,1,2.051,2.051v88.117a2.057,2.057,0,0,1-2.051,2.051h-8.488A2.057,2.057,0,0,1,340,233.779Z" transform="translate(-340 -143.61)" fill="#fff"/></g><g transform="translate(177.843 143.61)"><path d="M388,145.661a2.057,2.057,0,0,1,2.051-2.051h3.7a2.057,2.057,0,0,1,2.051,2.051v88.117a2.057,2.057,0,0,1-2.051,2.051h-3.7A2.057,2.057,0,0,1,388,233.779Z" transform="translate(-388 -143.61)" fill="#fff"/><path d="M388,145.661a2.057,2.057,0,0,1,2.051-2.051h3.7a2.057,2.057,0,0,1,2.051,2.051v88.117a2.057,2.057,0,0,1-2.051,2.051h-3.7A2.057,2.057,0,0,1,388,233.779Z" transform="translate(-388 -143.61)" fill="#fff"/></g><g transform="translate(192.752 143.61)"><path d="M424.34,145.661a2.057,2.057,0,0,1,2.051-2.051h3.836a2.057,2.057,0,0,1,2.051,2.051v88.117a2.057,2.057,0,0,1-2.051,2.051h-3.836a2.057,2.057,0,0,1-2.051-2.051Z" transform="translate(-424.34 -143.61)" fill="#fff"/><path d="M424.34,145.661a2.057,2.057,0,0,1,2.051-2.051h3.836a2.057,2.057,0,0,1,2.051,2.051v88.117a2.057,2.057,0,0,1-2.051,2.051h-3.836a2.057,2.057,0,0,1-2.051-2.051Z" transform="translate(-424.34 -143.61)" fill="#fff"/></g><g transform="translate(207.793 143.61)"><path d="M466.891,143.61a2.057,2.057,0,0,1,2.051,2.051v88.117a2.057,2.057,0,0,1-2.051,2.051h-3.84A2.057,2.057,0,0,1,461,233.779V145.661a2.057,2.057,0,0,1,2.051-2.051Z" transform="translate(-461 -143.61)" fill="#fff"/><path d="M466.891,143.61a2.057,2.057,0,0,1,2.051,2.051v88.117a2.057,2.057,0,0,1-2.051,2.051h-3.84A2.057,2.057,0,0,1,461,233.779V145.661a2.057,2.057,0,0,1,2.051-2.051Z" transform="translate(-461 -143.61)" fill="#fff"/></g></g></g></svg>