<svg xmlns="http://www.w3.org/2000/svg" width="264" height="181" viewBox="0 0 264 181"><g transform="translate(-3300 -30)"><g transform="translate(1758 13)"><rect width="264" height="181" rx="20" transform="translate(1542 17)" fill="none"/></g><g transform="translate(3331.869 75.394)"><path d="M5.006,45.325,6.934,59.369H67.792l-2.2-16.247H37.225l-.275-1.928L63.11,23.02,61.458,8.7H.6L2.528,24.947H30.891l.275,1.928Z" transform="translate(0 16.618)" fill="#fff"/><path d="M25.3,8.7l6.058,50.669H92.492L86.158,8.7Z" transform="translate(43.318 16.618)" fill="#fff"/><path d="M112.786,26.875C111.409,15.584,102.321,8.7,90.2,8.7H50l6.334,50.669H74.508L73.132,49.18H92.408C107.554,49.18,114.438,39.817,112.786,26.875ZM90.48,35.136h-19L70.1,23.02H89.379c4.406,0,6.884,2.478,7.16,6.058C96.539,31.281,95.437,35.136,90.48,35.136Z" transform="translate(86.636 16.618)" fill="#fff"/><ellipse cx="8.537" cy="9.638" rx="8.537" ry="9.638" transform="matrix(0.685, -0.729, 0.729, 0.685, 67.21, 11.664)" fill="#fff"/></g></g></svg>