<svg xmlns="http://www.w3.org/2000/svg" width="264" height="181" viewBox="0 0 264 181"><g transform="translate(-904 -17)"><rect width="264" height="181" rx="20" transform="translate(904 17)" fill="#fff"/><g transform="translate(910.34 -964.831)"><path d="M55.5,1002.345H195.472v75.561l-6.928,10.825,6.928,9.635v43.951H55.5v-71.231l4.33-4.98-4.33-4.763Z" transform="translate(0 0)" fill="#016fd0"/><path d="M249.14,1562.81v-21.975h23.268l2.5,3.254,2.579-3.254H361.94v20.46a9.753,9.753,0,0,1-4.763,1.516H310.412l-2.815-3.464v3.464h-9.223V1556.9a7.739,7.739,0,0,1-3.984.825h-3.139v5.088H277.286l-2.493-3.324-2.531,3.324Z" transform="translate(-166.468 -462.928)" fill="#fff"/><path d="M55.5,1347.855l5.247-12.233h9.074l2.978,6.852v-6.852h11.28l1.773,4.953,1.719-4.953h50.636v2.49a10.924,10.924,0,0,1,7.036-2.49l16.429.057,2.926,6.763v-6.82h9.44l2.6,3.885v-3.885h9.526V1357.6h-9.526l-2.49-3.9v3.9H160.277l-1.395-3.464h-3.728l-1.372,3.464h-9.406a9.3,9.3,0,0,1-6.17-2.439v2.439H124.025l-2.815-3.464v3.464H68.477l-1.394-3.464H63.367l-1.384,3.464H55.5Z" transform="translate(0 -286.512)" fill="#fff"/><path d="M62.77,1354.929l-7.077,16.454H60.3l1.306-3.295H69.2l1.3,3.295h4.709l-7.07-16.454Zm2.618,3.829,2.314,5.758H63.068Z" transform="translate(-0.166 -303.109)" fill="#016fd0"/><path d="M198.223,1371.364v-16.455l6.548.024,3.808,10.609,3.717-10.633h6.5v16.455h-4.114V1359.24l-4.361,12.124h-3.608l-4.373-12.124v12.124Z" transform="translate(-122.696 -303.092)" fill="#016fd0"/><path d="M364.861,1371.364v-16.455h13.423v3.681h-9.266v2.815h9.05v3.464h-9.05v2.923h9.266v3.572Z" transform="translate(-265.952 -303.092)" fill="#016fd0"/><path d="M477.5,1354.929v16.454h4.114v-5.846h1.732l4.932,5.846H493.3l-5.413-6.062a5.011,5.011,0,0,0,4.513-5.054c0-3.463-2.718-5.338-5.751-5.338Zm4.114,3.681h4.7a1.888,1.888,0,0,1,1.949,1.732,1.859,1.859,0,0,1-1.888,1.732H481.61Z" transform="translate(-362.782 -303.109)" fill="#016fd0"/><path d="M599.887,1371.364h-4.2v-16.455h4.2Z" transform="translate(-464.387 -303.092)" fill="#016fd0"/><path d="M647.849,1371.364h-.907c-4.387,0-7.05-3.456-7.05-8.16,0-4.82,2.634-8.3,8.173-8.3h4.547v3.9H647.9c-2.249,0-3.839,1.755-3.839,4.438,0,3.187,1.819,4.525,4.438,4.525h1.083Z" transform="translate(-502.39 -303.092)" fill="#016fd0"/><path d="M717.029,1354.929l-7.077,16.454h4.608l1.306-3.295h7.591l1.3,3.295h4.709l-7.07-16.454Zm2.618,3.829,2.314,5.758h-4.635l2.321-5.758Z" transform="translate(-562.619 -303.109)" fill="#016fd0"/><path d="M852.433,1371.364v-16.455h5.23l6.678,10.338v-10.338h4.114v16.455h-5.061l-6.847-10.609v10.609Z" transform="translate(-685.107 -303.092)" fill="#016fd0"/><path d="M269.2,1576.576v-16.454h13.423v3.681h-9.266v2.815h9.05v3.464h-9.05V1573h9.266v3.572Z" transform="translate(-183.712 -479.509)" fill="#016fd0"/><path d="M737.947,1576.576v-16.454H751.37v3.681H742.1v2.815h9.007v3.464H742.1V1573h9.267v3.572Z" transform="translate(-586.685 -479.509)" fill="#016fd0"/><path d="M367.621,1576.576l6.536-8.126-6.691-8.329h5.183l3.985,5.149,4-5.149h4.98l-6.6,8.227,6.548,8.227h-5.182l-3.869-5.068-3.775,5.068Z" transform="translate(-268.19 -479.509)" fill="#016fd0"/><path d="M499.869,1560.141V1576.6h4.222v-5.2h4.33c3.664,0,6.441-1.944,6.441-5.724,0-3.131-2.178-5.534-5.907-5.534Zm4.222,3.721h4.56a1.857,1.857,0,0,1,2.03,1.894,1.9,1.9,0,0,1-2.043,1.895h-4.547Z" transform="translate(-382.015 -479.526)" fill="#016fd0"/><path d="M619.448,1560.121v16.454h4.114v-5.846h1.732l4.932,5.846h5.027l-5.413-6.062a5.011,5.011,0,0,0,4.513-5.054c0-3.463-2.718-5.338-5.751-5.338Zm4.114,3.681h4.7a1.888,1.888,0,0,1,1.949,1.732,1.859,1.859,0,0,1-1.888,1.732h-4.763Z" transform="translate(-484.815 -479.509)" fill="#016fd0"/><path d="M843.987,1576.576V1573h8.233c1.218,0,1.746-.658,1.746-1.38,0-.692-.526-1.391-1.746-1.391H848.5c-3.234,0-5.035-1.97-5.035-4.928,0-2.638,1.649-5.183,6.455-5.183h8.011l-1.732,3.7H849.27c-1.324,0-1.732.695-1.732,1.359a1.434,1.434,0,0,0,1.516,1.434h3.9c3.6,0,5.169,2.045,5.169,4.723,0,2.879-1.743,5.237-5.365,5.237Z" transform="translate(-677.397 -479.509)" fill="#016fd0"/><path d="M951.584,1576.576V1573h8.233c1.218,0,1.746-.658,1.746-1.38,0-.692-.526-1.391-1.746-1.391H956.1c-3.234,0-5.035-1.97-5.035-4.928,0-2.638,1.649-5.183,6.455-5.183h8.011l-1.732,3.7h-6.928c-1.324,0-1.732.695-1.732,1.359a1.435,1.435,0,0,0,1.516,1.434h3.9c3.6,0,5.169,2.045,5.169,4.723,0,2.879-1.743,5.237-5.365,5.237Z" transform="translate(-769.896 -479.509)" fill="#016fd0"/></g></g></svg>