<svg xmlns="http://www.w3.org/2000/svg" width="264" height="181" viewBox="0 0 264 181"><g transform="translate(-3300 -30)"><g transform="translate(1758 13)"><rect width="264" height="181" rx="20" transform="translate(1542 17)" fill="#fff"/></g><g transform="translate(3326.051 95.604)"><path d="M166.16,16.588c-2.232.163-7.33.792-8.788,1C155.947,9.734,152,4.145,146.232,2.829c-11.744-2.69-23.593,13.079-31.7,42.161l6.052,1.678c7.785-27.944,17.982-39.16,24.243-37.729,2.863.654,5.339,4.23,6.354,9.789-14.967,3.429-18.08,9.948-17.73,15.272a11.562,11.562,0,0,0,6.386,9.843,12.183,12.183,0,0,0,11.829-.395c4.241-2.714,4.889-6.67,5.316-9.288,0,0,.827-6,.894-8.445a56.775,56.775,0,0,0-6.324,1.262c-.106,1.675-.767,6.173-.767,6.173-.4,2.437-.712,3.875-2.509,5.025a5.945,5.945,0,0,1-5.608.075,5.282,5.282,0,0,1-2.95-4.658c-.238-3.667,4.009-6.643,11.949-8.568a.571.571,0,0,0,.072-.021,148.69,148.69,0,0,1,15.021-2.181Z" transform="translate(45.136 0.998)"/><path d="M103.867,8.364a12.943,12.943,0,1,0,12.973,12.943A12.957,12.957,0,0,0,103.867,8.364Zm0,20.3a7.354,7.354,0,1,1,7.37-7.354A7.363,7.363,0,0,1,103.867,28.661Z" transform="translate(35.819 3.296)"/><path d="M50.47,0H44.262V36.648H50.47Z" transform="translate(17.442)"/><path d="M19.212,8.792v1.2A12.939,12.939,0,1,0,12.973,34.25a12.728,12.728,0,0,0,6.239-1.642v1.2h6.209V8.792ZM12.976,28.661a7.354,7.354,0,1,1,7.371-7.354A7.363,7.363,0,0,1,12.976,28.661Z" transform="translate(0 3.296)"/><path d="M34.993,8.364a12.885,12.885,0,0,0-6.239,1.63v-1.2H22.546V45.5h6.209V32.6a12.719,12.719,0,0,0,6.239,1.642,12.94,12.94,0,1,0,0-25.88Zm0,20.3a7.354,7.354,0,1,1,7.371-7.354A7.363,7.363,0,0,1,34.993,28.661Z" transform="translate(8.885 3.296)"/><path d="M96.417,8.621H73.738V13.8h13.1L73.254,33.766h22.57V28.574H82.842Z" transform="translate(28.868 3.397)"/><path d="M71.441,8.792v1.2A12.939,12.939,0,1,0,65.2,34.25a12.728,12.728,0,0,0,6.239-1.642v1.2H77.65V8.792ZM65.2,28.661a7.354,7.354,0,1,1,7.371-7.354A7.363,7.363,0,0,1,65.2,28.661Z" transform="translate(20.582 3.296)"/></g></g></svg>