<svg width="264" height="181" viewBox="0 0 264 181" fill="none" xmlns="http://www.w3.org/2000/svg">
<g clip-path="url(#clip0_150_120)">
<g clip-path="url(#clip1_150_120)">
<path d="M244 0H20C8.9543 0 0 8.9543 0 20V161C0 172.046 8.9543 181 20 181H244C255.046 181 264 172.046 264 161V20C264 8.9543 255.046 0 244 0Z" fill="white"/>
</g>
<path d="M167 100.091C167 101.717 163.871 129.894 162.392 143.672C161.961 147.736 157.84 148 156.731 148H109.11C104.154 148 102.388 145.839 101.909 143.259C101.402 140.549 98.7731 114.058 97.4587 104.833L97 100.247C97 97.9643 98.6156 96 100.861 96H162.892C163.436 95.9998 163.975 96.1067 164.477 96.3143C164.979 96.5221 165.434 96.8262 165.816 97.2093C166.198 97.5924 166.5 98.0468 166.703 98.5462C166.906 99.0457 167.007 99.5798 167 100.118V100.091Z" fill="url(#paint0_linear_150_120)"/>
<path d="M166.763 71.993H147.031C147.168 67.1342 149.442 65.669 154.08 62.7182L165.007 55.7329C166.479 54.8512 167.708 53.6163 168.579 52.1405C169.451 50.6646 169.94 48.9947 170 47.2825V36.8967C170 33.9459 167.855 33.1553 165.055 34.9613L150.562 44.2908C145.378 47.6505 142.366 51.3919 141 56.0055C140.078 51.1533 136.322 46.6078 131.582 44.2226L117.239 37.0602C114.425 35.6973 112.281 36.038 112.26 38.9752L112.226 49.361C112.237 51.0096 112.705 52.623 113.578 54.0229C114.45 55.4228 115.694 56.5546 117.171 57.2935L127.948 62.6226C132.395 64.8579 134.956 65.703 135.052 71.9863H96.21C95.79 71.9836 95.3736 72.0637 94.9847 72.222C94.5958 72.3804 94.2421 72.6136 93.9438 72.9087C93.6456 73.2038 93.4087 73.5547 93.2467 73.9414C93.0847 74.3282 93.0009 74.743 93 75.162V87.8375C93.0027 88.2556 93.0878 88.6688 93.2506 89.0539C93.4134 89.439 93.6506 89.7885 93.9487 90.082C94.2467 90.3756 94.5999 90.6079 94.9879 90.7654C95.3759 90.9228 95.7912 91.0024 96.21 90.9997H166.763C167.183 91.0051 167.601 90.9275 167.991 90.7712C168.381 90.6149 168.737 90.3832 169.037 90.0892C169.338 89.7955 169.577 89.4453 169.741 89.0589C169.905 88.6722 169.991 88.2572 169.993 87.8375V75.162C169.992 74.7419 169.906 74.326 169.743 73.9389C169.579 73.5516 169.34 73.2004 169.04 72.9058C168.739 72.6114 168.383 72.379 167.993 72.2222C167.602 72.0657 167.184 71.9876 166.763 71.993Z" fill="url(#paint1_linear_150_120)"/>
</g>
<defs>
<linearGradient id="paint0_linear_150_120" x1="107.037" y1="96.0773" x2="143.473" y2="161.879" gradientUnits="userSpaceOnUse">
<stop stop-color="#25A2FA"/>
<stop offset="0.483812" stop-color="#0075FF"/>
<stop offset="1" stop-color="#3F58EA"/>
</linearGradient>
<linearGradient id="paint1_linear_150_120" x1="164.477" y1="90.8036" x2="100.542" y2="31.3154" gradientUnits="userSpaceOnUse">
<stop stop-color="#00BBE9"/>
<stop offset="0.1" stop-color="#01C3DC"/>
<stop offset="0.18" stop-color="#02CDCE"/>
<stop offset="0.24" stop-color="#09D1C0"/>
<stop offset="0.37" stop-color="#1BDD9A"/>
<stop offset="0.55" stop-color="#38EF5F"/>
<stop offset="0.59" stop-color="#3FF350"/>
<stop offset="0.67" stop-color="#4BF550"/>
<stop offset="0.82" stop-color="#69F950"/>
<stop offset="1" stop-color="#95FF4F"/>
</linearGradient>
<clipPath id="clip0_150_120">
<rect width="264" height="181" fill="white"/>
</clipPath>
<clipPath id="clip1_150_120">
<rect width="264" height="181" fill="white"/>
</clipPath>
</defs>
</svg>
