<svg xmlns="http://www.w3.org/2000/svg" width="264" height="181" viewBox="0 0 264 181"><g transform="translate(-1542 -17)"><rect width="264" height="181" rx="20" transform="translate(1542 17)" fill="#fff"/><g transform="translate(2366.136 989.429)"><path d="M-792.457-919.522a12.09,12.09,0,0,1,12.034-12.145h176.548a12.093,12.093,0,0,1,12.034,12.145V-842.7a12.088,12.088,0,0,1-12.034,12.139H-780.423A12.085,12.085,0,0,1-792.457-842.7v-76.822" transform="translate(0 -0.852)" fill="#fff"/><path d="M-791.845-921.6a11.121,11.121,0,0,1,11.069-11.169H-602.4A11.117,11.117,0,0,1-591.34-921.6v.355h-200.5v-.355" transform="translate(-0.473)" fill="#fbb110"/><path d="M-591.34-534.4v.277A11.117,11.117,0,0,1-602.4-522.956H-780.776a11.121,11.121,0,0,1-11.069-11.169v-.277h200.5" transform="translate(-0.473 -308.135)" fill="#fbb110"/><path d="M-653.079-824.422a28.137,28.137,0,0,0,28.01,28.266,28.141,28.141,0,0,0,28.01-28.266,28.142,28.142,0,0,0-28.01-28.271A28.139,28.139,0,0,0-653.079-824.422Zm-133.547,0a28.142,28.142,0,0,0,28.016,28.266,28.141,28.141,0,0,0,28.01-28.266,28.142,28.142,0,0,0-28.01-28.271A28.143,28.143,0,0,0-786.626-824.422Zm195.286,34.161H-729.452a35.6,35.6,0,0,0,7.337-7.431l14.069-18.117,6.144,7.836,6.838-9.178-5.978-7.681,14.319-18.445c4.547-5.85-4.148-12.727-8.7-6.876l-12.655,16.3-12.866-16.52c-4.553-5.834-13.232,1.059-8.679,6.9l14.54,18.644-15.733,20.258c-5.59,7.2-11.169,13.8-22.243,14.308h-38.791v-68H-654.46a36.5,36.5,0,0,0-7.01,7.193l-14.063,18.112-6.15-7.83-6.832,9.178,5.978,7.675-14.324,18.444c-4.542,5.85,4.154,12.727,8.7,6.876l12.66-16.3,12.866,16.515c4.553,5.839,13.232-1.054,8.679-6.893l-14.54-18.65,15.733-20.252c5.135-6.621,10.265-12.733,19.659-14.069h41.769Zm-50.5-34.161a16.847,16.847,0,0,1,16.77-16.925A16.842,16.842,0,0,1-608.3-824.422,16.841,16.841,0,0,1-625.068-807.5,16.846,16.846,0,0,1-641.838-824.422Zm-133.542,0a16.847,16.847,0,0,1,16.77-16.925,16.846,16.846,0,0,1,16.764,16.925A16.844,16.844,0,0,1-758.61-807.5a16.846,16.846,0,0,1-16.77-16.919" transform="translate(-0.473 -57.627)" fill="#e70020"/></g></g></svg>