<svg width="264" height="181" viewBox="0 0 264 181" fill="none" xmlns="http://www.w3.org/2000/svg">
<g clip-path="url(#clip0_136_10)">
<g clip-path="url(#clip1_136_10)">
<path d="M244 0H20C8.9543 0 0 8.9543 0 20V161C0 172.046 8.9543 181 20 181H244C255.046 181 264 172.046 264 161V20C264 8.9543 255.046 0 244 0Z" fill="white"/>
</g>
<mask id="mask0_136_10" style="mask-type:luminance" maskUnits="userSpaceOnUse" x="84" y="33" width="96" height="116">
<path d="M84 33H180V148.663H84V33Z" fill="white"/>
</mask>
<g mask="url(#mask0_136_10)">
<path d="M165.884 59.6024C165.884 73.9292 152.662 90.8313 132.658 90.8313H113.389L112.443 96.7995L107.947 125.53H84L98.4064 33H137.205C150.27 33 160.548 40.2816 164.334 50.4008C165.426 53.3429 165.952 56.4649 165.884 59.6024Z" fill="#002991"/>
<path d="M179.687 86.2045C178.408 93.9704 174.408 101.028 168.402 106.114C162.396 111.2 154.776 113.983 146.905 113.964H133.524L127.955 148.662H104.136L107.947 125.53L112.445 96.7992L113.389 90.831H132.658C152.637 90.831 165.884 73.9288 165.884 59.6021C175.716 64.6758 181.447 74.9286 179.687 86.2045Z" fill="#60CDFF"/>
<path d="M165.883 59.6022C161.76 57.4457 156.761 56.1323 151.32 56.1323H118.832L113.388 90.8311H132.657C152.636 90.8311 165.883 73.929 165.883 59.6022Z" fill="#008CFF"/>
</g>
</g>
<defs>
<clipPath id="clip0_136_10">
<rect width="264" height="181" fill="white"/>
</clipPath>
<clipPath id="clip1_136_10">
<rect width="264" height="181" fill="white"/>
</clipPath>
</defs>
</svg>
