<svg xmlns="http://www.w3.org/2000/svg" width="264" height="181" viewBox="0 0 264 181"><g transform="translate(-1542 -17)"><rect width="264" height="181" rx="20" transform="translate(1542 17)" fill="#fff"/><g transform="translate(1594.822 30.738)"><path d="M0,0H128.375V124.323H0Z" transform="translate(15.047 14.267)" fill="#fff"/><path d="M14.391,13.311H143.966v125.9H14.391Z" transform="translate(0 0)" fill="#008061"/><path d="M106.746,139.055V144.1H75.668v-5.05H52.152c-2.3,0-4.17-2.4-4.17-5.363L38.142,34.16a5.254,5.254,0,0,1,5.133-5.367h95.031a5.251,5.251,0,0,1,5.115,5.367l-9.729,99.522c0,2.961-1.872,5.363-4.17,5.363l-22.776.009Z" transform="translate(-12.465 -8.126)" fill="#fff"/><path d="M74.567,59.459h63.62c-6.264,2.348-25.333,15.259-30.1,23.94H74.623l-.056-23.94Z" transform="translate(-31.582 -24.219)" fill="#f5821f"/><path d="M149.772,203.817c-.908,8.669-.945,19.227-.945,30.316H121.251a301.22,301.22,0,0,1,1.371-30.316Z" transform="translate(-56.083 -99.982)" fill="#ed1b2d"/><path d="M80.359,169.336v3.36H75.949v3.361h4.411v3.851H70.278V161.986H80.359v3.992H75.949v3.358Z" transform="translate(-29.331 -78.028)" fill="#008061"/><path d="M129.714,169.336v3.36h-4.392v3.361h4.392v3.851H119.652V161.986h10.062v3.992h-4.392v3.358Z" transform="translate(-55.243 -78.028)" fill="#008061"/><path d="M184.059,169.336v3.36h-4.411v3.361h4.411v3.851H173.978V161.986h10.081v3.992h-4.411v3.358Z" transform="translate(-83.755 -78.028)" fill="#008061"/><path d="M101.143,161.986v14.071h4.41v3.851H95.472V161.986Z" transform="translate(-42.553 -78.028)" fill="#008061"/><path d="M150.111,174.1l-2.15-12.113h-4.948l2.816,17.922h7.283l3.41-17.922h-4.207Z" transform="translate(-67.504 -78.028)" fill="#008061"/><path d="M200.225,161.986h5.449v17.92h-5.449Z" transform="translate(-97.53 -78.028)" fill="#008061"/><path d="M211.691,166.74c.3-1.963,3.076-1.436,3.076-.315v12.917h5.467V164.151c0-3.221-4.54-4.516-8.506-1.681l-.037,4.27Z" transform="translate(-103.548 -77.461)" fill="#008061"/><path d="M158.183,104.263c.556-6.859,9.951-18.059,19.051-21V56.8C152.2,68,135.926,84.944,132.4,104.2l25.778.067Z" transform="translate(-61.937 -22.825)" fill="#ed1b2d"/></g></g></svg>