<svg xmlns="http://www.w3.org/2000/svg" xmlns:xlink="http://www.w3.org/1999/xlink" width="264" height="181" viewBox="0 0 264 181"><defs><clipPath id="a"><rect width="210.998" height="68.672" fill="none"/></clipPath></defs><g transform="translate(-2652 -30)"><g transform="translate(1110 13)"><rect width="264" height="181" rx="20" transform="translate(1542 17)" fill="none"/></g><g transform="translate(2678.501 76.664)"><g clip-path="url(#a)"><path d="M723.543,142.145H675.577a1.6,1.6,0,0,0-1.6,1.6v35.669a1.6,1.6,0,0,0,1.6,1.6h47.967a1.6,1.6,0,0,0,1.6-1.6V143.746a1.6,1.6,0,0,0-1.6-1.6" transform="translate(-548.433 -115.667)" fill="#004e98"/><path d="M791.738,31.4,737.116.322a1.941,1.941,0,0,0-2.68.475L715.291,34.451A1.941,1.941,0,0,0,716.253,37L770.874,68.07a1.942,1.942,0,0,0,2.68-.474L792.7,33.942a1.942,1.942,0,0,0-.961-2.546" transform="translate(-581.894 -0.001)" fill="#f92f49"/><path d="M768.849,57.309,709.98,35.318a1.941,1.941,0,0,0-2.57.9L693.86,72.484a1.941,1.941,0,0,0,1.354,2.36l58.869,21.991a1.942,1.942,0,0,0,2.57-.894L770.2,59.67a1.942,1.942,0,0,0-1.354-2.361" transform="translate(-564.537 -28.611)" fill="#4b9cdf"/><path d="M748.554,99.955l-62-10.28a1.941,1.941,0,0,0-2.351,1.372l-6.334,38.2a1.941,1.941,0,0,0,1.782,2.056l62,10.28A1.942,1.942,0,0,0,744,140.209l6.334-38.2a1.942,1.942,0,0,0-1.782-2.057" transform="translate(-551.588 -72.943)" fill="#f07400"/><path d="M738.914,142.145H676.072a1.941,1.941,0,0,0-2.094,1.738V182.6a1.941,1.941,0,0,0,2.094,1.737h62.842a1.942,1.942,0,0,0,2.094-1.737V143.883a1.942,1.942,0,0,0-2.094-1.738" transform="translate(-548.433 -115.667)" fill="#004e98"/><path d="M738.914,142.145H676.072a1.941,1.941,0,0,0-2.094,1.738V182.6a1.941,1.941,0,0,0,2.094,1.737h62.842a1.942,1.942,0,0,0,2.094-1.737V143.883a1.942,1.942,0,0,0-2.094-1.738" transform="translate(-548.433 -115.667)" fill="#004e98"/><path d="M702.731,195.822h-3.21v-8.508h3.21a4.259,4.259,0,1,1,0,8.508m0-12.432h-3.21v-.013h-3.948V206.7h3.948v-6.953h3.21a8.18,8.18,0,1,0,0-16.355" transform="translate(-566.007 -149.219)" fill="#ffe31e"/><path d="M796.37,229.361l-.046,0-.046,0a5.1,5.1,0,0,1,0-10.205l.046,0,.046,0a5.1,5.1,0,0,1,0,10.205m-.046-13.762a8.665,8.665,0,1,0,0,17.32,9.37,9.37,0,0,0,5.092-1.461v1.194h3.859v-8.394a8.641,8.641,0,0,0-8.952-8.659" transform="translate(-640.705 -175.438)" fill="#ffe31e"/><path d="M905.613,215.6v9.1a4.056,4.056,0,0,1-8.112,0v-9.1h-3.9v9.1a7.939,7.939,0,0,0,12.159,6.742,5.439,5.439,0,0,1-5.2,3.872,5.375,5.375,0,0,1-4.633-2.66h-3.893a8.949,8.949,0,0,0,17.477-2.714V215.6Z" transform="translate(-725.873 -175.438)" fill="#ffe31e"/><path d="M133.863,209.611c-5.136,0-9.4,3.7-9.4,9.093a9.405,9.405,0,1,0,9.4-9.093m.049,14.45h-.1a5.358,5.358,0,0,1,0-10.715l.047,0,.049,0a5.358,5.358,0,0,1,0,10.715" transform="translate(-101.28 -170.566)" fill="#004a85"/><path d="M19.205,192.311a8.462,8.462,0,1,1-.052-10.9l2.943-2.58a12.633,12.633,0,0,0-9.53-4.3,12.362,12.362,0,1,0,0,24.721,12.623,12.623,0,0,0,9.575-4.356Z" transform="translate(0 -142.02)" fill="#004a85"/><path d="M352.2,209.48a9.086,9.086,0,0,0-9.414,9.106v16.52h4.057v-8.949a9.862,9.862,0,0,0,5.357,1.536,9.111,9.111,0,1,0,0-18.213m.047,14.471h-.1a5.366,5.366,0,0,1,0-10.732l.049,0,.047,0a5.366,5.366,0,0,1,0,10.732" transform="translate(-278.931 -170.459)" fill="#004a85"/><path d="M242.969,209.48a9.085,9.085,0,0,0-9.412,9.106v16.52h4.057v-8.949a9.854,9.854,0,0,0,5.355,1.536,9.111,9.111,0,1,0,0-18.213m.047,14.471h-.1a5.366,5.366,0,0,1,0-10.732l.049,0,.047,0a5.366,5.366,0,0,1,0,10.732" transform="translate(-190.051 -170.459)" fill="#004a85"/><path d="M458.02,209.479a9.115,9.115,0,0,0,0,18.213c2.87,0,5.894-.895,7.488-3.141l-2.387-2.386a5.933,5.933,0,0,1-4.605,1.95c-3.127,0-5.22-1.842-5.22-4.457h13.39a10.507,10.507,0,0,0,.055-1.071c0-5.4-3.392-9.107-8.721-9.107m-4.649,7.3c0-1.614,2.1-3.821,4.9-3.821,1.845,0,4.3,1.4,4.3,3.821Z" transform="translate(-365.606 -170.458)" fill="#004a85"/><path d="M555.16,191.341V176H551.1v15.344a9.054,9.054,0,0,0,9.25,9.1V196.7a5.216,5.216,0,0,1-5.191-5.362" transform="translate(-448.445 -143.213)" fill="#004a85"/><path d="M995.5,290.348a1.917,1.917,0,1,1-1.91-1.866,1.874,1.874,0,0,1,1.91,1.866m-3.354,0a1.446,1.446,0,0,0,1.454,1.49,1.429,1.429,0,0,0,1.423-1.479,1.44,1.44,0,1,0-2.878-.011m1.148.979h-.433v-1.866a3.616,3.616,0,0,1,.717-.059,1.187,1.187,0,0,1,.649.137.522.522,0,0,1,.181.41.475.475,0,0,1-.386.431v.024a.552.552,0,0,1,.34.454,1.439,1.439,0,0,0,.138.469h-.469a1.631,1.631,0,0,1-.146-.457c-.034-.2-.15-.3-.387-.3h-.2Zm.01-1.059h.207c.239,0,.433-.08.433-.273,0-.169-.125-.285-.4-.285a1.05,1.05,0,0,0-.239.023Z" transform="translate(-806.947 -234.745)" fill="#ffe31e"/></g></g></g></svg>