<svg width="264" height="181" viewBox="0 0 264 181" fill="none" xmlns="http://www.w3.org/2000/svg">
<mask id="mask0_188_8" style="mask-type:luminance" maskUnits="userSpaceOnUse" x="25" y="55" width="215" height="72">
<path d="M239.84 55H25V126.395H239.84V55Z" fill="white"/>
</mask>
<g mask="url(#mask0_188_8)">
<path fill-rule="evenodd" clip-rule="evenodd" d="M234.324 92.9555L153.074 108.256C152.223 108.418 151.348 108.41 150.501 108.233C149.653 108.055 148.848 107.712 148.133 107.223C147.418 106.735 146.806 106.109 146.332 105.383C145.858 104.658 145.532 103.845 145.371 102.993L140.038 78.1118C139.716 76.3944 140.087 74.6187 141.071 73.1758C142.056 71.7321 143.572 70.7392 145.288 70.4156L226.546 55.1148C228.264 54.7932 230.038 55.1685 231.479 56.1569C232.921 57.1453 233.911 58.6662 234.233 60.3856L239.566 85.2592C239.889 86.9753 239.519 88.7504 238.536 90.1933C237.554 91.6363 236.039 92.6299 234.324 92.9555Z" fill="black"/>
<path d="M233.182 76.4565H151.885C148.208 76.4565 145.227 79.4414 145.227 83.1231V119.393C145.227 123.075 148.208 126.06 151.885 126.06H233.182C236.859 126.06 239.84 123.075 239.84 119.393V83.1231C239.84 79.4414 236.859 76.4565 233.182 76.4565Z" fill="#68AE34"/>
<path d="M31.8569 103.55C31.8727 105.19 32.4786 106.769 33.5635 107.998C34.0852 108.544 34.717 108.973 35.417 109.258C36.1171 109.542 36.8693 109.674 37.6241 109.645C38.6615 109.653 39.6831 109.391 40.5877 108.882C40.9785 108.673 41.3229 108.386 41.6005 108.04C41.878 107.694 42.0829 107.295 42.2028 106.868H49.2346C48.5493 109.25 47.0673 111.324 45.0368 112.742C42.9259 114.14 40.4362 114.853 37.906 114.786C29.3022 114.786 25.0003 110.323 25.0003 101.399C24.9772 99.6496 25.2609 97.9099 25.8384 96.258C26.3617 94.7829 27.1927 93.4362 28.2763 92.307C29.3757 91.1876 30.7109 90.3276 32.1846 89.7898C33.8935 89.1728 35.7011 88.8755 37.5174 88.9128C41.4994 88.9128 44.5137 90.1278 46.5606 92.5585C48.6074 94.9892 49.6232 98.6533 49.6079 103.55H31.8569ZM42.6066 99.4544C42.5932 98.6395 42.4251 97.8339 42.1114 97.082C41.8418 96.4381 41.4394 95.8584 40.9305 95.3809C40.4459 94.9368 39.8755 94.5969 39.2544 94.382C38.6287 94.1692 37.9725 94.0611 37.3118 94.0618C36.6571 94.0532 36.0073 94.1744 35.3994 94.4181C34.7916 94.6611 34.2376 95.0226 33.7692 95.4805C32.7253 96.5449 32.1189 97.9629 32.0703 99.4544H42.6066Z" fill="#68AE34"/>
<path d="M74.9312 105.244C74.7773 106.622 74.3417 107.954 73.6513 109.157C72.98 110.31 72.099 111.326 71.0536 112.154C69.9722 113.002 68.7565 113.661 67.4577 114.107C66.0463 114.582 64.5655 114.817 63.0768 114.801C61.4403 114.82 59.814 114.541 58.2772 113.977C56.8495 113.434 55.5666 112.567 54.5289 111.445C53.4331 110.249 52.6023 108.835 52.091 107.295C51.479 105.436 51.1854 103.487 51.2225 101.529C51.1816 99.5939 51.4755 97.6662 52.091 95.8309C52.5943 94.3552 53.4281 93.0138 54.5289 91.9108C55.6115 90.8719 56.9133 90.0899 58.3382 89.6222C61.4427 88.66 64.7602 88.6259 67.8841 89.5233C69.1914 89.9359 70.4091 90.5935 71.4721 91.4608C72.4907 92.2749 73.3245 93.2967 73.9179 94.458C74.5231 95.6744 74.8781 96.9995 74.9613 98.356H68.1048C67.9849 97.1914 67.4098 96.1224 66.5051 95.3809C65.5726 94.6493 64.4133 94.2688 63.2292 94.3054C62.5333 94.3015 61.8421 94.4201 61.1875 94.6565C60.5449 94.8995 59.9757 95.3043 59.5342 95.8309C59.0091 96.4761 58.6249 97.2248 58.4067 98.0278C58.1027 99.1249 57.9615 100.261 57.9877 101.399C57.9877 104.1 58.4956 106.098 59.5114 107.395C59.901 107.974 60.4226 108.453 61.0332 108.791C61.6439 109.129 62.326 109.317 63.0235 109.34C64.245 109.377 65.4447 109.01 66.4366 108.295C66.9113 107.934 67.3024 107.474 67.5821 106.948C67.8624 106.421 68.0255 105.839 68.0596 105.244H74.9312Z" fill="black"/>
<path d="M92.8048 114.137C92.5808 113.424 92.44 112.686 92.3856 111.94C91.4876 112.863 90.3938 113.572 89.1859 114.015C87.707 114.551 86.1415 114.81 84.5688 114.778C81.5978 114.778 79.4212 114.155 78.0398 112.909C77.3606 112.297 76.8235 111.543 76.4652 110.702C76.1076 109.86 75.9373 108.95 75.968 108.035C75.9045 106.575 76.2163 105.122 76.8746 103.817C77.4529 102.78 78.3077 101.925 79.3426 101.346C80.5092 100.693 81.7759 100.239 83.0912 100.003C84.5387 99.7188 86.1205 99.464 87.8373 99.2406C89.032 99.1561 90.1999 98.8483 91.2806 98.3328C91.5839 98.1101 91.8249 97.8134 91.9815 97.4715C92.1387 97.1295 92.2062 96.7536 92.178 96.3783C92.1498 96.0029 92.0267 95.6414 91.8204 95.3263C91.6147 95.0119 91.3317 94.7552 90.999 94.5796C90.0198 94.0877 88.9318 93.8539 87.8373 93.9011C86.2679 93.9011 85.1328 94.2364 84.4549 94.9006C83.7462 95.6165 83.2936 96.5472 83.1671 97.5474H76.8058C76.8281 96.354 77.0494 95.1731 77.4608 94.0537C77.8636 92.9873 78.5324 92.0422 79.4035 91.3079C80.4292 90.4741 81.622 89.8708 82.9006 89.5381C84.6101 89.0848 86.374 88.8746 88.1419 88.9126C89.8888 88.8779 91.6311 89.096 93.3151 89.561C94.5805 89.9134 95.7464 90.5553 96.7204 91.4376C97.5909 92.278 98.2315 93.3286 98.5793 94.4886C98.9834 95.8261 99.1786 97.218 99.1583 98.6151V114.137H92.8048ZM92.3476 102.101C91.9062 102.47 91.3841 102.732 90.8234 102.863C90.1534 103.062 89.1932 103.275 87.9362 103.512C86.5063 103.683 85.1295 104.159 83.8988 104.908C83.53 105.196 83.2372 105.569 83.0447 105.996C82.8527 106.422 82.7663 106.889 82.7938 107.356C82.7938 109.187 83.8962 110.102 86.1002 110.102C86.9314 110.112 87.758 109.97 88.5381 109.683C89.2606 109.435 89.932 109.058 90.5189 108.569C91.0461 108.086 91.4798 107.509 91.7987 106.868C92.1262 106.228 92.2959 105.519 92.2939 104.801L92.3476 102.101Z" fill="black"/>
<path d="M101.894 114.137V89.5611H108.293V92.5125C108.767 91.7684 109.362 91.1088 110.053 90.5599C110.629 90.1145 111.265 89.7523 111.942 89.4844C112.574 89.2427 113.235 89.0842 113.908 89.0115C114.57 88.9506 115.248 88.9126 115.949 88.9126H116.841V95.5563C116.216 95.4561 115.584 95.405 114.951 95.4037C110.792 95.4037 108.711 97.387 108.711 101.353V114.137H101.894Z" fill="black"/>
<path d="M133.052 97.9517H139.398V104.946C139.401 106.211 139.198 107.469 138.796 108.668C138.398 109.841 137.754 110.915 136.907 111.819C135.994 112.77 134.884 113.511 133.654 113.985C132.153 114.539 130.56 114.798 128.961 114.748C127.318 114.802 125.678 114.543 124.131 113.985C122.896 113.518 121.778 112.787 120.855 111.842C120.001 110.95 119.365 109.871 118.996 108.691C118.603 107.459 118.407 106.171 118.417 104.878V82.9175H125.129V89.5611H139.398V94.1376H125.129V104.252C125.049 105.524 125.371 106.79 126.051 107.868C126.412 108.318 126.879 108.671 127.412 108.894C127.944 109.117 128.524 109.201 129.098 109.141C129.668 109.192 130.243 109.106 130.773 108.89C131.303 108.674 131.773 108.333 132.146 107.898C132.854 106.856 133.197 105.609 133.121 104.351L133.052 97.9517Z" fill="black"/>
<path d="M156.51 83.0395H168.768C170.372 83.0297 171.972 83.183 173.545 83.4974C174.893 83.7502 176.171 84.2886 177.293 85.0759C178.336 85.8482 179.13 86.9086 179.578 88.1276C180.102 89.6629 180.215 91.3089 179.906 92.9018C179.702 94.5859 179.146 96.207 178.276 97.6617C177.517 98.8918 176.491 99.9352 175.274 100.713C174.012 101.484 172.621 102.019 171.168 102.292C169.55 102.62 167.904 102.781 166.254 102.772H160.921L159.154 115.396H151.886L156.51 83.0395ZM161.843 96.7696H166.703C167.342 96.7703 167.98 96.7094 168.608 96.5862C169.213 96.4703 169.796 96.262 170.338 95.9686C170.868 95.6745 171.328 95.2684 171.686 94.7784C172.079 94.2164 172.32 93.5621 172.387 92.8796C172.53 92.1826 172.405 91.4582 172.036 90.8504C171.704 90.3454 171.237 89.9432 170.688 89.691C170.07 89.4061 169.408 89.2279 168.73 89.1644C168.024 89.0897 167.314 89.0518 166.604 89.0504H162.894L161.843 96.7696Z" fill="white"/>
<path d="M193.224 112.627H193.132C192.243 113.787 191.048 114.675 189.681 115.19C188.343 115.698 186.922 115.957 185.491 115.953C184.481 115.96 183.477 115.813 182.512 115.518C181.629 115.257 180.811 114.813 180.112 114.214C179.444 113.636 178.938 112.895 178.641 112.063C178.321 111.105 178.243 110.083 178.413 109.088C178.583 107.383 179.368 105.798 180.623 104.633C181.852 103.559 183.296 102.761 184.858 102.292C186.524 101.783 188.246 101.483 189.985 101.399C191.768 101.308 193.391 101.262 194.854 101.262C194.955 100.739 194.922 100.2 194.76 99.6932C194.597 99.1869 194.31 98.7291 193.925 98.3636C193.106 97.6306 192.035 97.2455 190.938 97.2881C189.82 97.2835 188.714 97.5258 187.7 97.9974C186.667 98.4907 185.718 99.1443 184.889 99.9349L181.719 96.1896C183.177 94.9982 184.843 94.0904 186.634 93.512C188.413 92.9231 190.275 92.6218 192.15 92.6199C193.838 92.5636 195.522 92.8216 197.116 93.3823C198.276 93.8107 199.276 94.5855 199.981 95.6021C200.663 96.6822 201.056 97.9188 201.124 99.1948C201.221 100.837 201.134 102.484 200.865 104.107L199.28 115.403H192.85L193.224 112.627ZM192.461 105.678C191.936 105.678 191.273 105.678 190.481 105.747C189.707 105.794 188.941 105.925 188.195 106.136C187.473 106.329 186.794 106.655 186.192 107.097C185.907 107.306 185.67 107.573 185.496 107.881C185.322 108.189 185.217 108.53 185.186 108.882C185.114 109.244 185.165 109.62 185.331 109.95C185.488 110.249 185.709 110.509 185.978 110.712C186.277 110.934 186.62 111.09 186.984 111.17C187.356 111.26 187.737 111.306 188.119 111.308C188.804 111.308 189.486 111.215 190.146 111.033C190.786 110.868 191.4 110.611 191.966 110.27C192.503 109.941 192.97 109.508 193.338 108.996C193.722 108.455 193.963 107.825 194.039 107.165L194.221 105.701L192.461 105.678Z" fill="white"/>
<path d="M214.418 119.027C213.8 120.217 213.206 121.269 212.65 122.185C212.123 123.054 211.453 123.828 210.669 124.473C209.86 125.142 208.925 125.64 207.919 125.937C206.575 126.292 205.187 126.454 203.797 126.418C202.063 126.426 200.34 126.14 198.7 125.571L200.422 119.942C201.396 120.403 202.461 120.637 203.538 120.629C204.2 120.644 204.86 120.56 205.496 120.377C205.996 120.219 206.457 119.959 206.852 119.614C207.237 119.29 207.571 118.909 207.843 118.485C208.124 118.028 208.437 117.494 208.772 116.883L209.473 115.602L202.768 93.1919H210.311L214.036 107.875H214.135L221.213 93.1919H228.412L214.418 119.027Z" fill="white"/>
</g>
</svg>
