<svg xmlns="http://www.w3.org/2000/svg" width="264" height="181" viewBox="0 0 264 181"><g transform="translate(-2179 -17)"><g transform="translate(330)"><rect width="264" height="181" rx="20" transform="translate(1849 17)" fill="none"/></g><g transform="translate(2014.014 -1114.711)"><path d="M379.763,1219.045c0-29.854-36.991-54.179-82.827-54.179-45.736,0-82.726,24.325-82.726,54.179v3.216c0,31.663,32.367,57.3,82.726,57.3,50.762,0,82.827-25.633,82.827-57.3Z" transform="translate(0 0)" fill="#000e8f"/><path d="M391.247,1234.114c0,28.145-35.684,50.963-79.611,50.963-44.027,0-79.71-22.818-79.71-50.963s35.684-50.963,79.71-50.963C355.563,1183.151,391.247,1205.969,391.247,1234.114Z" transform="translate(-14.601 -15.069)" fill="#008dd8"/><path d="M532.15,1295.268c-.1.1-.9.9-.4,1.608a10.275,10.275,0,0,0,9.147,1.609,27.331,27.331,0,0,0,8.243-5.227,33.887,33.887,0,0,1,9.348-6.031,10.621,10.621,0,0,1,6.836-.1,18.441,18.441,0,0,1,6.232,3.619c5.528,4.121,27.442,23.22,31.161,26.537a185.341,185.341,0,0,1,35.08-11.258,44.361,44.361,0,0,0-16.686-26.235c-12.565,5.327-28.045,8.142-43.122.7a41.325,41.325,0,0,0-16.284-3.619c-11.962.2-17.189,5.428-22.617,10.856Z" transform="translate(-261.55 -92.306)" fill="#fff"/><path d="M357.684,1325.514c-.2-.3-25.733-22.617-31.563-26.939a13.567,13.567,0,0,0-7.137-3.418,9.877,9.877,0,0,0-3.417.3,30.056,30.056,0,0,0-9.248,5.63,28.474,28.474,0,0,1-9.147,5.628,15.212,15.212,0,0,1-10.052-1.507,5.512,5.512,0,0,1-1.609-1.81,3.1,3.1,0,0,1,.8-3.317l7.037-7.639,2.513-2.513c-2.212.4-4.322.905-6.433,1.508a27.029,27.029,0,0,1-7.438,1.407c-2.614-.3-5.127-.7-7.64-1.206a111.285,111.285,0,0,1-20.3-7.337,44.911,44.911,0,0,0-18.7,27.039c1.508.3,3.82,1.005,4.724,1.206,22.717,5.026,29.753,10.253,31.06,11.359a7.562,7.562,0,0,1,6.031-2.513,7.317,7.317,0,0,1,5.629,3.217,8.528,8.528,0,0,1,5.428-1.909,11.323,11.323,0,0,1,3.216.5,7.826,7.826,0,0,1,4.624,4.122,8.175,8.175,0,0,1,3.116-.6,10,10,0,0,1,3.82.8,8.1,8.1,0,0,1,4.423,8.946h.9a8.855,8.855,0,0,1,7.639,4.322,9.144,9.144,0,0,1,.2,8.946,14.509,14.509,0,0,0,7.84,2.011,4.533,4.533,0,0,0,3.619-1.608c.2-.3.5-.6.2-.905L321.5,1342.1s-1.106-1-.7-1.307c.3-.4,1.006.1,1.407.5a97.337,97.337,0,0,1,7.237,6.835,2.59,2.59,0,0,0,1.809.8,6.364,6.364,0,0,0,5.026-1.206,5.8,5.8,0,0,0,1.106-1.106.1.1,0,0,1-.1.1,3.332,3.332,0,0,0-.1-4.222l-7.438-8.343s-1.106-1.005-.7-1.407c.3-.4,1.005.2,1.408.5,2.412,2.01,5.729,5.328,8.946,8.544a6.2,6.2,0,0,0,7.137-.3,5.206,5.206,0,0,0,2.714-4.623,5.822,5.822,0,0,0-1.608-3.117L337.479,1323.5s-1.105-.905-.7-1.408c.3-.4,1.005.2,1.407.5,3.216,2.713,12.062,10.855,12.062,10.855a6.231,6.231,0,0,0,6.935-.2,4.411,4.411,0,0,0,2.212-3.619A4.881,4.881,0,0,0,357.684,1325.514Z" transform="translate(-17.425 -98.428)" fill="#fff"/><path d="M476.045,1521.594a13.753,13.753,0,0,0-3.518.8c-.2-.1.1-.8.2-1.106.1-.4,2.211-6.634-2.814-8.845a6.124,6.124,0,0,0-7.137,1.105c-.2.2-.3.2-.3-.1a5.615,5.615,0,0,0-3.92-5.227,7.729,7.729,0,0,0-8.645,3.116,5.654,5.654,0,0,0-4.925-4.825,5.771,5.771,0,0,0-5.83,3.719,5.454,5.454,0,0,0,2.312,6.434,5.613,5.613,0,0,0,6.835-.6v.2a7.139,7.139,0,0,0,4.523,8.343,5.553,5.553,0,0,0,5.428-.8c.4-.3.5-.2.4.2a5.183,5.183,0,0,0,3.92,5.628,4.936,4.936,0,0,0,5.83-1.105c.5-.4.6-.3.6.3a7.107,7.107,0,0,0,7.237,6.735,6.953,6.953,0,0,0,6.735-7.136A6.865,6.865,0,0,0,476.045,1521.594Z" transform="translate(-185.14 -281.54)" fill="#fff"/><path d="M306.446,1333.1a6.528,6.528,0,0,1-6.534-6.233c0-.3,0-1.005-.7-1.005a.915.915,0,0,0-.8.4,4.5,4.5,0,0,1-3.116,1.407,7.163,7.163,0,0,1-2.111-.4c-3.719-1.508-3.719-4.122-3.619-5.127a.88.88,0,0,0-.1-.7l-.3-.2h-.2a1.428,1.428,0,0,0-.6.2,5.127,5.127,0,0,1-3.116,1.1,5.7,5.7,0,0,1-1.81-.3,6.672,6.672,0,0,1-4.222-7.84.847.847,0,0,0-.2-.7l-.4-.3-.3.3a5.028,5.028,0,1,1-3.016-8.645,5.125,5.125,0,0,1,4.523,4.423l.2,1.307.7-1.105a7.015,7.015,0,0,1,8.142-2.915,5.2,5.2,0,0,1,3.518,4.825c.1.6.5.6.6.6a.608.608,0,0,0,.6-.3,5.16,5.16,0,0,1,3.719-1.507,6.736,6.736,0,0,1,2.814.6c4.724,2.011,2.613,8.142,2.513,8.142-.4,1.006-.4,1.508,0,1.709l.2.1h.1a3.564,3.564,0,0,0,1.005-.2,5.454,5.454,0,0,1,2.513-.6,6.484,6.484,0,0,1,0,12.968Zm50.36-29.151c-7.841-6.835-26.034-22.616-30.959-26.335a20.217,20.217,0,0,0-6.333-3.719,11.9,11.9,0,0,0-3.217-.5,10.42,10.42,0,0,0-3.92.7,31.9,31.9,0,0,0-9.449,5.931l-.2.1a24.95,24.95,0,0,1-8.041,5.126,13.621,13.621,0,0,1-2.915.3,7.355,7.355,0,0,1-5.629-1.81c-.1-.1,0-.4.3-.8l.1-.1,6.835-7.438c5.428-5.428,10.554-10.554,22.315-10.756h.6a41.494,41.494,0,0,1,15.48,3.619,46.628,46.628,0,0,0,21.109,5.025A54.655,54.655,0,0,0,376,1267.76c-.9-.7-1.809-1.508-2.814-2.211a50.767,50.767,0,0,1-20.305,4.624,44.44,44.44,0,0,1-19.7-4.724,44.711,44.711,0,0,0-16.887-4.021h-.7a29.384,29.384,0,0,0-19.2,6.835,39.06,39.06,0,0,0-9.549,1.809,25.648,25.648,0,0,1-6.735,1.206H277.5a135.367,135.367,0,0,1-24.225-6.735c-1.005.7-1.91,1.407-2.915,2.111a119.846,119.846,0,0,0,26.336,7.64c1.105,0,2.212.2,3.418.2a32.975,32.975,0,0,0,7.64-1.407c1.407-.4,3.116-.9,4.724-1.206l-1.307,1.307-7.036,7.64a3.491,3.491,0,0,0-1,3.82,4.861,4.861,0,0,0,1.909,2.111,14.653,14.653,0,0,0,7.438,1.91,13.621,13.621,0,0,0,2.915-.3,27.935,27.935,0,0,0,9.348-5.729,30.478,30.478,0,0,1,9.147-5.529,10.712,10.712,0,0,1,2.513-.3h.7a13.639,13.639,0,0,1,6.835,3.317c5.83,4.322,31.261,26.637,31.563,26.839a4.861,4.861,0,0,1,1.508,3.819A4.049,4.049,0,0,1,355,1314a5.607,5.607,0,0,1-3.317,1.005,6.135,6.135,0,0,1-3.015-.8c-.1-.1-8.846-8.141-12.062-10.756a2.252,2.252,0,0,0-1.508-.8.718.718,0,0,0-.6.3c-.5.6,0,1.508.7,2.011l10.253,10.253a5.756,5.756,0,0,1,1.407,2.815,4.707,4.707,0,0,1-2.513,4.222,7.384,7.384,0,0,1-3.619,1.206,5.235,5.235,0,0,1-2.915-.905l-1.408-1.407c-2.714-2.714-5.428-5.428-7.438-7.137a2.986,2.986,0,0,0-1.507-.7,1.451,1.451,0,0,0-.7.2,1.128,1.128,0,0,0,.2,1.508c.2.2.3.4.5.6l7.438,8.344a2.745,2.745,0,0,1,.2,3.518l-.3.4a4.358,4.358,0,0,1-.7.6,5.813,5.813,0,0,1-3.618,1.207,3.762,3.762,0,0,1-1.005-.1,2.531,2.531,0,0,1-1.408-.6l-.1-.1c-.4-.4-4.222-4.222-7.237-6.835a2.762,2.762,0,0,0-1.508-.8,1.089,1.089,0,0,0-.7.3c-.6.7.3,1.708.7,2.111l6.433,6.936a1.379,1.379,0,0,1-.3.4c-.2.4-1.005,1.107-3.317,1.407a1.959,1.959,0,0,1-.8.1,15.04,15.04,0,0,1-6.232-1.909,9.107,9.107,0,0,0-.6-9.047,9.226,9.226,0,0,0-7.941-4.423h-.4a8.5,8.5,0,0,0-4.724-8.947,11.042,11.042,0,0,0-4.021-.8,7.127,7.127,0,0,0-2.915.5,7.478,7.478,0,0,0-4.624-3.921,9.79,9.79,0,0,0-3.418-.6,8.792,8.792,0,0,0-5.227,1.709,8.061,8.061,0,0,0-11.961-.7c-1.91-1.508-9.75-6.534-30.759-11.258-1.106-.2-3.417-.905-4.825-1.307-.2,1.106-.4,2.312-.5,3.417,0,0,3.82.9,4.624,1.106,21.41,4.724,28.547,9.75,29.753,10.656a7.954,7.954,0,0,0,8.846,10.957,9.179,9.179,0,0,0,6.031,7.036,7.127,7.127,0,0,0,2.915.5,5.56,5.56,0,0,0,1.809-.2,9.207,9.207,0,0,0,8.142,5.328,7.309,7.309,0,0,0,2.513-.4,9.383,9.383,0,0,0,15.48,3.015,19.146,19.146,0,0,0,8.041,2.413c.4,0,.8-.1,1.206-.1a7.163,7.163,0,0,0,5.428-2.714,1.007,1.007,0,0,0,.4-.5,10.928,10.928,0,0,0,2.513.4,8.359,8.359,0,0,0,5.227-1.91,7.247,7.247,0,0,0,3.016-4.422,10.969,10.969,0,0,0,1.809.1,10.308,10.308,0,0,0,5.327-1.609,8.132,8.132,0,0,0,3.82-6.936,4.7,4.7,0,0,0,1.709.2,8.94,8.94,0,0,0,5.026-1.508,7.214,7.214,0,0,0,3.417-5.629,7.546,7.546,0,0,0-1.106-4.624,213.591,213.591,0,0,1,33.07-10.354c-.1-1.106-.2-2.312-.4-3.417A193.646,193.646,0,0,0,356.806,1303.947Z" transform="translate(-15.541 -79.575)" fill="#000e8f"/></g></g></svg>