<svg xmlns="http://www.w3.org/2000/svg" width="264" height="181" viewBox="0 0 264 181"><g transform="translate(-599 -17)"><rect width="264" height="181" rx="20" transform="translate(599 17)" fill="none"/><g transform="translate(679.7 46.971)"><path d="M25.953,113.869l2.1-13.326-4.673-.108H1.061L16.57,2.1a1.268,1.268,0,0,1,1.26-1.075H55.458c12.492,0,21.113,2.6,25.614,7.73a17.625,17.625,0,0,1,4.1,7.69A27.764,27.764,0,0,1,85.2,27.051l-.048.309v2.712l2.11,1.2a14.8,14.8,0,0,1,4.272,3.257A15.167,15.167,0,0,1,95,42.3a32.886,32.886,0,0,1-.493,11.281,39.724,39.724,0,0,1-4.621,12.769,26.264,26.264,0,0,1-7.321,8.023,29.7,29.7,0,0,1-9.86,4.449,49.173,49.173,0,0,1-12.324,1.424H57.456a8.808,8.808,0,0,0-8.709,7.433l-.221,1.2-3.707,23.488-.168.862a.742.742,0,0,1-.233.5.622.622,0,0,1-.385.14Z" transform="translate(3.195 3.084)" fill="#253b80"/><path d="M73.822,7.667q-.168,1.077-.385,2.206C68.475,35.351,51.5,44.152,29.815,44.152H18.775a5.361,5.361,0,0,0-5.3,4.541L7.824,84.541,6.223,94.7a2.824,2.824,0,0,0,2.788,3.265h19.58A4.712,4.712,0,0,0,33.245,94L33.438,93l3.687-23.4.237-1.284a4.709,4.709,0,0,1,4.653-3.979h2.928c18.971,0,33.822-7.7,38.162-29.991,1.813-9.311.875-17.085-3.923-22.553a18.722,18.722,0,0,0-5.359-4.132Z" transform="translate(18.636 23.09)" fill="#179bd7"/><path d="M63.16,8.489a39.141,39.141,0,0,0-4.826-1.071,61.312,61.312,0,0,0-9.732-.71H19.109a4.7,4.7,0,0,0-4.649,3.979L8.186,50.426,8,51.586a5.359,5.359,0,0,1,5.3-4.541h11.04c21.683,0,38.66-8.805,43.622-34.279.148-.754.273-1.488.385-2.206a26.452,26.452,0,0,0-4.08-1.721q-.553-.183-1.111-.349Z" transform="translate(24.107 20.198)" fill="#222d65"/><path d="M38.567,30.885a4.69,4.69,0,0,1,4.649-3.975H72.709a61.313,61.313,0,0,1,9.732.71,39.141,39.141,0,0,1,5.941,1.416,26.851,26.851,0,0,1,4.08,1.721c1.476-9.415-.012-15.826-5.1-21.63C81.748,2.736,71.618,0,58.657,0H21.028a5.378,5.378,0,0,0-5.315,4.545L.04,103.892a3.233,3.233,0,0,0,3.189,3.739H26.46l5.833-37.007,6.274-39.739Z" transform="translate(0 0)" fill="#253b80"/></g></g></svg>